<?xml version="1.0" standalone="no"?>
<!DOCTYPE svg PUBLIC "-//W3C//DTD SVG 1.1//EN" "http://www.w3.org/Graphics/SVG/1.1/DTD/svg11.dtd" >
<svg xmlns="http://www.w3.org/2000/svg" xmlns:xlink="http://www.w3.org/1999/xlink" version="1.1">
<metadata>
Created by FontForge 20170731 at Tue Aug  1 18:29:58 2017
 By Aleksey,,,
Copyright (c) 2017 by Alexander Slobzheninov. All rights reserved.
</metadata>
<defs>
<font id="Octarine-Bold" horiz-adv-x="631" >
  <font-face 
    font-family="Octarine"
    font-weight="700"
    font-stretch="normal"
    units-per-em="1000"
    panose-1="0 0 0 0 0 0 0 0 0 0"
    ascent="800"
    descent="-200"
    x-height="513"
    cap-height="713"
    bbox="-80 -314 1525 1120"
    underline-thickness="50"
    underline-position="-200"
    unicode-range="U+000D-F6C3"
  />
<missing-glyph horiz-adv-x="333" 
 />
    <glyph glyph-name=".notdef" horiz-adv-x="333" 
 />
    <glyph glyph-name=".null" horiz-adv-x="0" 
 />
    <glyph glyph-name="nonmarkingreturn" horiz-adv-x="333" 
 />
    <glyph glyph-name="NULL" horiz-adv-x="738" 
d="M77 713h585v-713h-585v713zM217 593v-473h305v473h-305z" />
    <glyph glyph-name="NULL" horiz-adv-x="738" 
d="M77 713h585v-713h-585v713zM217 593v-473h305v473h-305z" />
    <glyph glyph-name="CR" unicode="&#xd;" horiz-adv-x="0" 
 />
    <glyph glyph-name="space" unicode=" " horiz-adv-x="300" 
 />
    <glyph glyph-name="exclam" unicode="!" horiz-adv-x="257" 
d="M37 72q0 38 25.5 63t65.5 25t66 -25t26 -63q0 -39 -25.5 -63.5t-66.5 -24.5q-40 0 -65.5 24.5t-25.5 63.5zM87 260l-40 260v193h164v-193l-42 -260h-82z" />
    <glyph glyph-name="quotedbl" unicode="&#x22;" horiz-adv-x="383" 
d="M37 573v140h114v-140l-19 -212h-76zM232 573v140h114v-140l-20 -212h-75z" />
    <glyph glyph-name="numbersign" unicode="#" horiz-adv-x="984" 
d="M461 39l46 173h-136l-57 -212h-124v39l46 173h-169v107h197l31 115h-178v108h207l54 201h125v-39l-44 -162h137l54 201h124v-39l-43 -162h186v-108h-215l-31 -115h196v-107h-225l-56 -212h-125v39zM430 434l-31 -115h137l31 115h-137z" />
    <glyph glyph-name="dollar" unicode="$" horiz-adv-x="688" 
d="M292 840h101v-106q86 -11 148 -48.5t81 -90.5v-78h-143q-4 39 -45 63.5t-100 24.5t-97 -24.5t-38 -62.5q0 -35 33.5 -53.5t84 -23t109 -15t109 -27t84 -61t33.5 -114.5q1 -99 -70 -165.5t-189 -80.5v-108h-101v108q-89 9 -155.5 50.5t-88.5 102.5v78h144q5 -44 48 -72.5
t104 -28.5q63 -1 104 26t41 68q0 31 -25 48.5t-65 25t-88.5 13t-97 17t-88.5 31t-65 61.5t-25 103q0 97 70.5 161t186.5 74v104z" />
    <glyph glyph-name="percent" unicode="%" horiz-adv-x="1046" 
d="M803 233q95 0 155.5 -60.5t60.5 -155.5t-60.5 -155.5t-155.5 -60.5q-94 0 -154.5 60.5t-60.5 155.5t60 155.5t155 60.5zM803 113q-42 0 -68.5 -26.5t-26.5 -69.5t26.5 -69t68.5 -26q43 0 69.5 26t26.5 69t-26.5 69.5t-69.5 26.5zM242 -135l463 878h99v-65l-463 -878h-99
v65zM243 742q95 0 155.5 -61t60.5 -155q0 -95 -60.5 -155.5t-155.5 -60.5t-155.5 60.5t-60.5 155.5t60.5 155.5t155.5 60.5zM243 621q-43 0 -69.5 -26t-26.5 -69t26.5 -69.5t69.5 -26.5t69 26.5t26 69.5t-26 69t-69 26z" />
    <glyph glyph-name="ampersand" unicode="&#x26;" horiz-adv-x="761" 
d="M727 65v-65h-128l-61 55q-111 -80 -240 -80q-114 0 -187.5 58.5t-73.5 155.5q0 74 38 120t104 76q-53 70 -53 144q0 92 66 148.5t177 56.5q107 0 170.5 -51.5t63.5 -133.5q0 -43 -16 -75.5t-50 -55.5t-63 -36t-77 -29l144 -125q31 45 55 112h124v-59q-37 -76 -85 -135z
M325 103q65 0 122 33l-181 164q-66 -40 -66 -105q0 -40 36 -66t89 -26zM268 537q0 -49 45 -104q72 23 108 47t36 66q0 29 -27 47.5t-68 18.5t-67 -21t-27 -54z" />
    <glyph glyph-name="quotesingle" unicode="'" horiz-adv-x="188" 
d="M37 573v140h114v-140l-19 -212h-76z" />
    <glyph glyph-name="parenleft" unicode="(" horiz-adv-x="338" 
d="M47 288q0 139 44 267.5t116 200.5h104v-65q-56 -74 -90 -184.5t-34 -218.5q0 -109 34 -220t90 -183v-65h-104q-72 71 -116 200t-44 268z" />
    <glyph glyph-name="parenright" unicode=")" horiz-adv-x="338" 
d="M291 288q0 -139 -44 -268t-115 -200h-105v65q56 72 90 182.5t34 220.5q0 108 -34 219t-90 184v65h105q71 -72 115 -200.5t44 -267.5z" />
    <glyph glyph-name="asterisk" unicode="*" horiz-adv-x="509" 
d="M308 273h-107l6 138l-116 -74l-54 92l122 64l-122 64l54 92l116 -74l-6 138h107l-6 -138l116 74l54 -92l-122 -64l122 -64l-54 -92l-116 74z" />
    <glyph glyph-name="plus" unicode="+" horiz-adv-x="564" 
d="M47 252v120h160v158h150v-158h160v-120h-160v-162h-150v162h-160z" />
    <glyph glyph-name="comma" unicode="," horiz-adv-x="259" 
d="M38 72q0 38 25 63t63 25q44 0 70 -34t26 -90q0 -65 -29.5 -123.5t-73.5 -80.5h-72v36q32 12 52 44.5t20 71.5q-36 0 -58.5 24.5t-22.5 63.5z" />
    <glyph glyph-name="hyphen" unicode="-" horiz-adv-x="504" 
d="M47 246v129h410v-129h-410z" />
    <glyph glyph-name="period" unicode="." horiz-adv-x="257" 
d="M37 72q0 39 25.5 64t65.5 25t66 -25t26 -64t-25.5 -63.5t-66.5 -24.5q-40 0 -65.5 24.5t-25.5 63.5z" />
    <glyph glyph-name="slash" unicode="/" horiz-adv-x="434" 
d="M17 -158l289 878h111v-72l-288 -878h-112v72z" />
    <glyph glyph-name="zero" unicode="0" horiz-adv-x="755" 
d="M40 356q0 167 91.5 274.5t235.5 107.5t236 -108t92 -274t-92 -273.5t-236 -107.5t-235.5 107.5t-91.5 273.5zM219 356q0 -100 41 -164t107 -64q67 0 108 64t41 164q0 101 -41 165t-108 64q-66 0 -107 -64t-41 -165z" />
    <glyph glyph-name="one" unicode="1" horiz-adv-x="418" 
d="M20 536l176 177h150v-713h-179v490l-108 -104h-39v150z" />
    <glyph glyph-name="two" unicode="2" horiz-adv-x="650" 
d="M324 738q118 0 189.5 -67t71.5 -175q0 -53 -21 -104t-49 -87.5t-71.5 -74t-72 -57t-66.5 -43.5h263v-130h-513v97q67 47 115 84t111 93t97.5 110t34.5 100q0 51 -27.5 82.5t-77.5 31.5q-53 0 -81 -35t-30 -95h-152v84q29 83 103 134.5t176 51.5z" />
    <glyph glyph-name="three" unicode="3" horiz-adv-x="661" 
d="M330 738q114 0 188.5 -56t74.5 -155q0 -60 -36.5 -100t-98.5 -55q75 -18 115.5 -67.5t40.5 -124.5q0 -91 -77 -148t-199 -57q-118 0 -199 51.5t-92 133.5v72h152q1 -51 35 -83.5t92 -33.5q51 0 83.5 28t32.5 72q0 56 -47.5 82t-115.5 26v104q74 0 117 24t43 66
q0 36 -31 58.5t-80 22.5q-48 0 -81.5 -23t-33.5 -64h-146v85q16 62 91 102t172 40z" />
    <glyph glyph-name="four" unicode="4" horiz-adv-x="665" 
d="M538 713v-425h82v-132h-82v-156h-179v156h-344v96l279 461h244zM359 288v283l-168 -283h168z" />
    <glyph glyph-name="five" unicode="5" horiz-adv-x="688" 
d="M218 281h-150l40 432h475v-128h-348l-13 -156q64 58 169 58q111 0 181.5 -70.5t70.5 -180.5q0 -116 -86 -188.5t-225 -72.5q-100 0 -177 42.5t-100 110.5v77h152q7 -45 42 -74t82 -29q58 0 96 37t38 94q0 58 -35.5 96t-88.5 38q-46 0 -80.5 -24t-42.5 -62z" />
    <glyph glyph-name="six" unicode="6" horiz-adv-x="630" 
d="M334 713h150v-78l-152 -194q32 13 66 13q90 0 148.5 -62.5t58.5 -158.5q0 -113 -82.5 -185.5t-211.5 -72.5q-125 0 -205.5 67.5t-80.5 171.5q0 41 16.5 88.5t40.5 80.5zM317 346q-49 0 -81 -32t-32 -81q0 -52 32 -85t81 -33q48 0 78.5 33t30.5 85q0 50 -30.5 81.5
t-78.5 31.5z" />
    <glyph glyph-name="seven" unicode="7" horiz-adv-x="529" 
d="M321 573h-311v140h504v-104l-252 -609h-148v78z" />
    <glyph glyph-name="eight" unicode="8" horiz-adv-x="656" 
d="M328 741q115 0 190 -55.5t75 -141.5q0 -58 -31 -104.5t-78 -61.5q60 -16 99.5 -69.5t39.5 -118.5q0 -93 -83 -152.5t-212 -59.5t-212 60t-83 152q0 65 39 118.5t99 69.5q-47 15 -77.5 61.5t-30.5 102.5q0 87 74.5 143t190.5 56zM328 310q-51 0 -84 -27t-33 -69t33 -69
t84 -27t84 27t33 69q-1 42 -33.5 69t-83.5 27zM328 601q-46 0 -76 -24t-30 -62t30 -63t76 -25t76 25t30 63q0 37 -30 61.5t-76 24.5z" />
    <glyph glyph-name="nine" unicode="9" horiz-adv-x="630" 
d="M300 0h-150v78l152 194q-32 -13 -66 -13q-90 0 -148.5 62.5t-58.5 158.5q0 113 82.5 185.5t211.5 72.5q125 0 205.5 -67.5t80.5 -171.5q0 -41 -16.5 -88.5t-40.5 -80.5zM317 367q49 0 81 32t32 81q0 52 -32 85t-81 33q-48 0 -78.5 -33t-30.5 -85q0 -50 30.5 -81.5
t78.5 -31.5z" />
    <glyph glyph-name="colon" unicode=":" horiz-adv-x="257" 
d="M37 72q0 39 25.5 64t65.5 25t66 -25t26 -64t-25.5 -63.5t-66.5 -24.5q-40 0 -65.5 24.5t-25.5 63.5zM37 432q0 38 25.5 63.5t65.5 25.5t66 -25.5t26 -63.5t-26 -63t-66 -25t-65.5 25t-25.5 63z" />
    <glyph glyph-name="semicolon" unicode=";" horiz-adv-x="260" 
d="M37 432q0 38 25.5 63.5t65.5 25.5t66 -25.5t26 -63.5t-26 -63t-66 -25t-65.5 25t-25.5 63zM39 72q0 38 25 63t63 25q44 0 70 -34t26 -90q0 -65 -29.5 -123.5t-73.5 -80.5h-72v36q32 12 52 44.5t20 71.5q-36 0 -58.5 24.5t-22.5 63.5z" />
    <glyph glyph-name="less" unicode="&#x3c;" horiz-adv-x="435" 
d="M15 185v143l331 185h59v-105l-277 -152l277 -151v-105h-59z" />
    <glyph glyph-name="equal" unicode="=" horiz-adv-x="604" 
d="M67 119v124h470v-124h-470zM67 374v125h470v-125h-470z" />
    <glyph glyph-name="greater" unicode="&#x3e;" horiz-adv-x="435" 
d="M420 328v-143l-331 -185h-59v105l277 151l-277 152v105h59z" />
    <glyph glyph-name="question" unicode="?" horiz-adv-x="630" 
d="M208 72q0 38 26 63t65 25q40 0 66 -25t26 -63q0 -39 -25.5 -63.5t-66.5 -24.5q-39 0 -65 24.5t-26 63.5zM230 212v173h74q52 0 83.5 29t32.5 79q0 47 -32.5 77t-84.5 30q-47 0 -81 -31.5t-40 -81.5h-145v85q27 75 101.5 120.5t173.5 45.5q128 0 207 -68.5t79 -174.5
q0 -96 -64 -156.5t-165 -60.5v-66h-139z" />
    <glyph glyph-name="at" unicode="@" horiz-adv-x="1038" 
d="M170 260q0 -140 82 -231t209 -91q91 0 131 38h39v-103q-55 -47 -170 -47q-177 0 -295.5 123.5t-118.5 310.5q0 189 133.5 312t338.5 123q206 0 339.5 -123t133.5 -312q0 -116 -57.5 -190t-146.5 -74q-59 0 -101 33t-47 85q-22 -32 -69.5 -52.5t-99.5 -20.5
q-81 0 -133 62.5t-52 156.5q0 96 66 158t167 62q103 0 168 -58t65 -149v-116q0 -26 13.5 -48t34.5 -22q31 0 49.5 48t18.5 125q0 145 -98.5 238.5t-250.5 93.5t-250.5 -93.5t-98.5 -238.5zM519 362q-43 0 -70.5 -29t-27.5 -73t27.5 -72.5t70.5 -28.5t71 28.5t28 72.5t-28 73
t-71 29z" />
    <glyph glyph-name="A" unicode="A" horiz-adv-x="730" 
d="M235 713h260l205 -616v-97h-157l-37 115h-282l-37 -115h-157v97zM365 561l-106 -319h213z" />
    <glyph glyph-name="B" unicode="B" horiz-adv-x="769" 
d="M77 713h376q112 0 184 -55t72 -139q0 -55 -28.5 -95.5t-74.5 -54.5q55 -13 89 -60t34 -112q0 -89 -72.5 -143t-189.5 -54h-390v713zM430 310h-174v-177h174q51 0 83.5 24t32.5 62q0 40 -32.5 65.5t-83.5 25.5zM256 580v-153h165q47 0 76 21.5t29 55.5t-29 55t-76 21h-165
z" />
    <glyph glyph-name="C" unicode="C" horiz-adv-x="821" 
d="M626 255h145v-95q-41 -80 -136 -132.5t-201 -52.5q-169 0 -279 107.5t-110 273.5t110 274t279 108q106 0 201 -53.5t136 -136.5v-94h-145q-13 59 -64.5 94.5t-121.5 36.5q-96 1 -156 -63t-60 -166q0 -100 60 -164t155 -64q70 0 122 35.5t65 91.5z" />
    <glyph glyph-name="D" unicode="D" horiz-adv-x="806" 
d="M761 356q0 -160 -112.5 -258t-297.5 -98h-274v713h274q184 0 297 -98t113 -259zM351 575h-100v-437h100q105 0 168.5 59.5t63.5 158.5q0 100 -63.5 159.5t-168.5 59.5z" />
    <glyph glyph-name="E" unicode="E" horiz-adv-x="629" 
d="M589 0h-512v713h502v-143h-330v-143h290v-124h-290v-160h340v-143z" />
    <glyph glyph-name="F" unicode="F" horiz-adv-x="588" 
d="M251 0h-179v713h491v-153h-312v-174h252v-135h-252v-251z" />
    <glyph glyph-name="G" unicode="G" horiz-adv-x="856" 
d="M643 296h-214v110h384q17 -187 -89.5 -309t-287.5 -122q-172 0 -284 107.5t-112 273.5t112 274t284 108q101 0 192.5 -45t136.5 -117v-92h-145q-19 44 -70 72.5t-114 28.5q-96 1 -156.5 -63t-60.5 -166q0 -101 61 -164t156 -64q87 -1 145 46t62 122z" />
    <glyph glyph-name="H" unicode="H" horiz-adv-x="793" 
d="M256 713v-273h282v273h178v-713h-178v298h-282v-298h-179v713h179z" />
    <glyph glyph-name="I" unicode="I" horiz-adv-x="333" 
d="M77 0v713h179v-713h-179z" />
    <glyph glyph-name="J" unicode="J" horiz-adv-x="470" 
d="M224 713h179v-487q0 -109 -69 -177.5t-175 -68.5q-79 0 -144 20v136q47 -13 94 -13q51 -1 83 35t32 94v461z" />
    <glyph glyph-name="K" unicode="K" horiz-adv-x="693" 
d="M256 431l254 282h148v-85l-239 -252l249 -292v-84h-154l-258 317v-317h-179v713h179v-282z" />
    <glyph glyph-name="L" unicode="L" horiz-adv-x="551" 
d="M77 713h179v-560h290v-153h-469v713z" />
    <glyph glyph-name="M" unicode="M" horiz-adv-x="1033" 
d="M77 713h205l234 -516l231 516h209v-713h-172v463l-201 -463h-133l-201 463v-463h-172v713z" />
    <glyph glyph-name="N" unicode="N" horiz-adv-x="814" 
d="M737 713v-713h-186l-308 496v-496h-166v713h187l308 -497v497h165z" />
    <glyph glyph-name="O" unicode="O" horiz-adv-x="872" 
d="M40 356q0 170 110 276t286 106t286 -106t110 -276t-110 -275.5t-286 -105.5t-286 105.5t-110 275.5zM219 356q0 -101 60.5 -164.5t156.5 -63.5t156.5 63.5t60.5 164.5t-60.5 165t-156.5 64t-156.5 -64t-60.5 -165z" />
    <glyph glyph-name="P" unicode="P" horiz-adv-x="722" 
d="M401 201h-152v-201h-172v713h326q130 0 212 -71.5t82 -184.5t-82.5 -184.5t-213.5 -71.5zM369 580h-120v-246h120q66 0 108 34.5t41 88.5q0 55 -41.5 89t-107.5 34z" />
    <glyph glyph-name="Q" unicode="Q" horiz-adv-x="866" 
d="M37 356q0 170 110 276t286 106t286 -106t110 -276q0 -185 -127 -291l90 -111v-84h-120l-101 125q-65 -20 -138 -20q-176 0 -286 105.5t-110 275.5zM216 356q0 -101 60.5 -164.5t156.5 -63.5t156.5 63.5t60.5 164.5t-60.5 165t-156.5 64t-156.5 -64t-60.5 -165z" />
    <glyph glyph-name="R" unicode="R" horiz-adv-x="755" 
d="M427 713q125 0 204 -67.5t79 -174.5q0 -69 -40 -124t-106 -78l126 -197v-72h-152l-144 241h-138v-241h-179v713h350zM256 580v-216h140q59 0 97.5 29.5t38.5 77.5q0 50 -38.5 79.5t-97.5 29.5h-140z" />
    <glyph glyph-name="S" unicode="S" horiz-adv-x="688" 
d="M338 -25q-104 0 -184.5 43.5t-105.5 112.5v78h144q5 -44 48 -72.5t104 -28.5q63 -1 104 26t41 68q0 31 -25 48.5t-65 25t-88.5 13t-97 17t-88.5 31t-65 61.5t-25 103q0 105 82 171t212 66q108 0 189.5 -40t103.5 -103v-78h-143q-4 39 -45 63.5t-100 24.5t-97 -24.5
t-38 -62.5q0 -35 33.5 -53.5t84 -23t109 -15t109 -27t84 -61t33.5 -114.5q1 -110 -86.5 -179.5t-227.5 -69.5z" />
    <glyph glyph-name="T" unicode="T" horiz-adv-x="611" 
d="M5 713h601v-153h-211v-560h-179v560h-211v153z" />
    <glyph glyph-name="U" unicode="U" horiz-adv-x="780" 
d="M535 713h178v-417q0 -142 -90 -231.5t-233 -89.5t-233 89.5t-90 231.5v417h179v-411q0 -70 39 -121.5t105 -52.5q65 0 105 49t40 125v411z" />
    <glyph glyph-name="V" unicode="V" horiz-adv-x="744" 
d="M557 713h157v-97l-205 -616h-273l-206 616v97h157l185 -579z" />
    <glyph glyph-name="W" unicode="W" horiz-adv-x="1245" 
d="M1208 713v-97l-198 -616h-242l-145 473l-145 -473h-242l-199 616v97h152l177 -548l172 548h169l173 -548l177 548h151z" />
    <glyph glyph-name="X" unicode="X" horiz-adv-x="727" 
d="M184 713l178 -242l182 242h143v-91l-192 -246l202 -285v-91h-150l-185 277l-182 -277h-150v91l193 285l-183 246v91h144z" />
    <glyph glyph-name="Y" unicode="Y" horiz-adv-x="687" 
d="M168 713l177 -312l170 312h147v-91l-227 -375v-247h-179v247l-231 375v91h143z" />
    <glyph glyph-name="Z" unicode="Z" horiz-adv-x="670" 
d="M45 713h580v-117l-351 -456h361v-140h-600v117l360 456h-350v140z" />
    <glyph glyph-name="bracketleft" unicode="[" horiz-adv-x="444" 
d="M416 -180h-339v936h339v-108h-186v-721h186v-107z" />
    <glyph glyph-name="backslash" unicode="\" horiz-adv-x="434" 
d="M306 -230l-289 878v72h112l288 -878v-72h-111z" />
    <glyph glyph-name="bracketright" unicode="]" horiz-adv-x="444" 
d="M366 -180h-339v107h187v721h-187v108h339v-936z" />
    <glyph glyph-name="asciicircum" unicode="^" horiz-adv-x="560" 
d="M202 713h156l165 -255v-65h-105l-138 222l-137 -222h-106v65z" />
    <glyph glyph-name="underscore" unicode="_" horiz-adv-x="500" 
d="M0 -112v112h500v-112h-500z" />
    <glyph glyph-name="grave" unicode="`" horiz-adv-x="276" 
d="M239 609v-39h-86l-116 127v46h105z" />
    <glyph glyph-name="a" unicode="a" horiz-adv-x="656" 
d="M322 533q125 0 206 -78t81 -199v-256h-146v61q-65 -81 -174 -81q-112 0 -182 77t-70 199q0 121 80 199t205 78zM323 393q-56 0 -91.5 -38.5t-35.5 -98.5q0 -59 36 -97.5t91 -38.5t91 38.5t36 97.5q0 60 -35.5 98.5t-91.5 38.5z" />
    <glyph glyph-name="b" unicode="b" horiz-adv-x="659" 
d="M57 743h159v-266q59 56 146 56q113 0 186.5 -78.5t73.5 -198.5t-81.5 -198t-206.5 -78q-121 0 -199 72.5t-78 184.5v506zM463 256q0 60 -35.5 98.5t-91.5 38.5q-55 0 -90.5 -38.5t-35.5 -98.5q0 -59 35.5 -97.5t90.5 -38.5t91 38.5t36 97.5z" />
    <glyph glyph-name="c" unicode="c" horiz-adv-x="596" 
d="M559 391v-65h-124q-10 32 -40.5 53t-69.5 21q-57 0 -93 -40t-36 -104q0 -63 35.5 -103t91.5 -40q39 0 70 21t42 53l124 1v-79q-23 -57 -88.5 -93t-148.5 -36q-127 0 -206 77t-79 199q0 123 79.5 200t206.5 77q81 0 146.5 -39.5t89.5 -102.5z" />
    <glyph glyph-name="d" unicode="d" horiz-adv-x="659" 
d="M443 743h159v-506q0 -112 -78 -184.5t-199 -72.5q-125 0 -206.5 78t-81.5 198t74 198.5t187 78.5q86 0 145 -56v266zM196 256q0 -59 36 -97.5t91 -38.5t90.5 38.5t36.5 97.5q0 60 -35.5 98.5t-91.5 38.5t-91.5 -38.5t-35.5 -98.5z" />
    <glyph glyph-name="e" unicode="e" horiz-adv-x="636" 
d="M326 533q121 0 197 -76.5t76 -198.5q0 -40 -5 -63h-389q14 -44 45 -69.5t75 -25.5q38 0 68.5 16.5t40.5 42.5h128v-58q-24 -55 -91 -88t-149 -33q-127 0 -206 78t-79 202q0 121 80.5 197t208.5 76zM317 413q-49 0 -81 -34.5t-39 -91.5h242q-1 54 -35 90t-87 36z" />
    <glyph glyph-name="f" unicode="f" horiz-adv-x="368" 
d="M20 393v120h71v59q0 86 46.5 138.5t122.5 52.5q55 0 108 -17v-130q-24 7 -54 7q-29 0 -46.5 -19t-17.5 -51v-40h114v-120h-114v-393h-159v393h-71z" />
    <glyph glyph-name="g" unicode="g" horiz-adv-x="654" 
d="M323 533q121 0 200 -77.5t79 -196.5v-265q0 -109 -76.5 -176.5t-199.5 -67.5q-100 0 -175.5 43t-96.5 112v65h141q8 -44 42.5 -72t82.5 -28q54 0 88.5 36.5t34.5 93.5v49q-63 -56 -148 -56q-111 0 -184.5 75.5t-73.5 190.5q0 119 81 196.5t205 77.5zM322 393
q-56 0 -91 -38t-35 -99q0 -58 35.5 -95.5t91.5 -37.5t91 36.5t35 96.5q0 61 -35 99t-92 38z" />
    <glyph glyph-name="h" unicode="h" horiz-adv-x="632" 
d="M377 533q87 0 142.5 -57t54.5 -147v-329h-159v284q1 48 -26 78.5t-69 30.5q-41 0 -67.5 -29.5t-26.5 -76.5v-287h-159v743h159v-284q55 74 151 74z" />
    <glyph glyph-name="i" unicode="i" horiz-adv-x="297" 
d="M69 0v513h159v-513h-159zM57 666q0 39 25.5 64t65.5 25t66 -25t26 -64q0 -38 -26 -63t-66 -25t-65.5 25t-25.5 63z" />
    <glyph glyph-name="j" unicode="j" horiz-adv-x="290" 
d="M63 513h159v-561q0 -83 -48.5 -134t-127.5 -51q-63 0 -114 17v130q22 -7 60 -7q32 0 51.5 19t19.5 51v536zM51 666q0 39 25.5 64t65.5 25t65.5 -25t25.5 -64q0 -38 -25.5 -63t-65.5 -25t-65.5 25t-25.5 63z" />
    <glyph glyph-name="k" unicode="k" horiz-adv-x="584" 
d="M226 320l185 193h138v-78l-172 -169l182 -194v-72h-144l-189 212v-212h-159v743h159v-423z" />
    <glyph glyph-name="l" unicode="l" horiz-adv-x="293" 
d="M67 0v743h159v-743h-159z" />
    <glyph glyph-name="m" unicode="m" horiz-adv-x="958" 
d="M220 513v-62q23 39 63 60.5t87 21.5q55 0 98 -24.5t66 -66.5q24 41 71 65.5t100 24.5q87 0 141.5 -57.5t54.5 -149.5v-325h-159v291q0 43 -25 72t-65 30q-41 0 -66.5 -28.5t-25.5 -73.5v-291h-159v291q0 46 -23.5 74t-62.5 28q-40 0 -64.5 -28t-24.5 -74v-291h-159v513
h153z" />
    <glyph glyph-name="n" unicode="n" 
d="M379 533q85 0 140 -59.5t55 -151.5v-322h-159v284q0 48 -26 78.5t-68 30.5q-41 0 -68 -30t-27 -76v-287h-159v513h154v-70q61 90 158 90z" />
    <glyph glyph-name="o" unicode="o" horiz-adv-x="646" 
d="M609 256q0 -122 -79.5 -199t-206.5 -77t-206.5 77t-79.5 199q0 123 79.5 200t206.5 77t206.5 -77t79.5 -200zM450 256q0 61 -35.5 99t-91.5 38t-91.5 -38t-35.5 -99q0 -60 35.5 -98t91.5 -38t91.5 38t35.5 98z" />
    <glyph glyph-name="p" unicode="p" horiz-adv-x="659" 
d="M216 -230h-159v506q0 112 78 184.5t199 72.5q125 0 206.5 -78.5t81.5 -198.5t-73.5 -198t-186.5 -78q-87 0 -146 56v-266zM463 256q0 60 -35.5 98.5t-91.5 38.5q-55 0 -90.5 -38.5t-35.5 -98.5q0 -59 35.5 -97.5t90.5 -38.5t91 38.5t36 97.5z" />
    <glyph glyph-name="q" unicode="q" horiz-adv-x="659" 
d="M602 -230h-159v266q-59 -56 -145 -56q-113 0 -187 78t-74 198t81.5 198.5t206.5 78.5q121 0 199 -72.5t78 -184.5v-506zM196 256q0 -59 36 -97.5t91 -38.5t91 38.5t36 97.5q-1 60 -36.5 98.5t-90.5 38.5q-56 0 -91.5 -38.5t-35.5 -98.5z" />
    <glyph glyph-name="r" unicode="r" horiz-adv-x="470" 
d="M357 532q69 0 103 -39v-144h-78q-7 19 -26.5 31.5t-42.5 12.5q-38 0 -62.5 -34t-24.5 -88v-271h-159v513h153v-66q22 40 58 62.5t79 22.5z" />
    <glyph glyph-name="s" unicode="s" horiz-adv-x="547" 
d="M269 -20q-79 0 -142.5 32t-83.5 82v65h130q5 -31 33.5 -50t69.5 -19q39 0 63.5 16.5t24.5 42.5q0 22 -24.5 34t-62 14t-80.5 10t-80.5 20.5t-62 46.5t-24.5 87q0 76 65.5 124t168.5 48q83 0 146 -28t80 -72v-59h-129q-2 22 -28.5 35.5t-65.5 13.5q-37 0 -60.5 -14
t-23.5 -36q0 -20 24.5 -31t62 -14t80.5 -11.5t80.5 -21t62 -45.5t24.5 -84q0 -82 -69 -134t-179 -52z" />
    <glyph glyph-name="t" unicode="t" horiz-adv-x="388" 
d="M15 393v120h71v110h159v-110h114v-120h-114v-203q0 -32 17.5 -51t46.5 -19q30 0 54 7v-131q-50 -16 -108 -16q-76 0 -122.5 52.5t-46.5 138.5v222h-71z" />
    <glyph glyph-name="u" unicode="u" 
d="M252 -20q-85 0 -140 59.5t-55 151.5v322h159v-284q0 -48 26 -78.5t68 -30.5q41 0 68 30t27 76v287h159v-513h-154v70q-61 -90 -158 -90z" />
    <glyph glyph-name="v" unicode="v" horiz-adv-x="567" 
d="M153 513l130 -392l132 392h142v-81l-160 -432h-227l-160 432v81h143z" />
    <glyph glyph-name="w" unicode="w" horiz-adv-x="915" 
d="M164 513l112 -351l113 351h136l119 -355l113 355h138v-72l-145 -441h-195l-98 327l-97 -327h-195l-145 441v72h144z" />
    <glyph glyph-name="x" unicode="x" horiz-adv-x="560" 
d="M25 441v72h137l118 -159l118 159h137v-72l-135 -175l145 -194v-72h-144l-121 175l-121 -175h-144v72l145 194z" />
    <glyph glyph-name="y" unicode="y" horiz-adv-x="565" 
d="M64 -106q21 -7 52 -7q72 0 119 107l-220 450v69h139l144 -320l113 320h139v-69l-175 -463q-79 -213 -216 -213q-55 0 -95 16v110z" />
    <glyph glyph-name="z" unicode="z" horiz-adv-x="529" 
d="M35 513h459v-104l-238 -279h248v-130h-479v104l253 279h-243v130z" />
    <glyph glyph-name="braceleft" unicode="{" horiz-adv-x="443" 
d="M416 -180h-156q-57 0 -91.5 35t-34.5 92v208q0 30 -18.5 48t-48.5 18h-10v143h10q30 0 48.5 18.5t18.5 48.5v198q0 57 34.5 92t91.5 35h156v-108h-60q-32 0 -51 -19t-19 -51v-162q0 -52 -31.5 -85.5t-83.5 -36.5l-10 -1l10 -1q52 -3 83.5 -36.5t31.5 -85.5v-173
q0 -31 19 -50.5t51 -19.5h60v-107z" />
    <glyph glyph-name="bar" unicode="|" horiz-adv-x="294" 
d="M77 -230v960h140v-960h-140z" />
    <glyph glyph-name="braceright" unicode="}" horiz-adv-x="443" 
d="M183 -180h-156v107h60q31 0 50.5 19.5t19.5 50.5v173q0 52 31.5 85.5t83.5 36.5l10 1l-10 1q-52 3 -83.5 36.5t-31.5 85.5v162q0 32 -19.5 51t-50.5 19h-60v108h156q57 0 92 -35t35 -92v-198q0 -30 18 -48.5t48 -18.5h10v-143h-10q-30 0 -48 -18t-18 -48v-208
q0 -57 -35 -92t-92 -35z" />
    <glyph glyph-name="asciitilde" unicode="~" horiz-adv-x="704" 
d="M228 422q38 0 88 -27t96 -53.5t76 -26.5q29 0 57.5 18t44.5 46h47v-110q-30 -39 -74.5 -63t-83.5 -24q-38 0 -88.5 26.5t-98.5 53.5t-79 27q-26 0 -54.5 -18t-45.5 -46h-46v110q31 39 76.5 63t84.5 24z" />
    <glyph glyph-name="exclamdown" unicode="&#xa1;" horiz-adv-x="257" 
d="M37 414q0 38 25.5 62.5t65.5 24.5t66 -24.5t26 -62.5t-26 -63.5t-66 -25.5t-65.5 25.5t-25.5 63.5zM47 -38l40 259h82l42 -260v-192h-164v193z" />
    <glyph glyph-name="cent" unicode="&#xa2;" horiz-adv-x="596" 
d="M264 630h101v-100q68 -10 120.5 -47.5t73.5 -91.5v-65h-124q-10 32 -40.5 53t-69.5 21q-57 0 -93 -40t-36 -104q0 -63 35.5 -103t91.5 -40q39 0 70 21t42 53l124 1v-79q-19 -49 -72 -83.5t-122 -42.5v-100h-101v102q-103 17 -165 90t-62 181q0 107 62 181t165 91v102z
" />
    <glyph glyph-name="sterling" unicode="&#xa3;" horiz-adv-x="687" 
d="M412 605q-35 0 -57 -28t-22 -72v-96h218v-95h-227q-19 -143 -120 -187h429v-127h-576v147q92 23 106 167h-96v95h100v106q0 100 62 161.5t166 61.5q91 -1 158 -47t80 -118v-65h-139q0 42 -23.5 69.5t-58.5 27.5z" />
    <glyph glyph-name="currency" unicode="&#xa4;" horiz-adv-x="714" 
d="M667 556v-91l-65 -66q41 -63 41 -143t-41 -143l65 -65v-92h-65l-81 81q-71 -41 -164 -41q-92 0 -165 41l-80 -81h-65v92l65 65q-41 61 -41 143q0 80 41 143l-65 66v91h65l81 -81q71 41 164 41t164 -41l81 81h65zM484 256q-1 62 -36 101t-91 39t-91 -39t-35 -101
q-1 -61 34.5 -100t91.5 -39t91.5 38.5t35.5 100.5z" />
    <glyph glyph-name="yen" unicode="&#xa5;" horiz-adv-x="711" 
d="M180 713l177 -312l170 312h147v-91l-191 -315h164v-75h-200v-77h200v-75h-200v-80h-179v80h-203v75h203v77h-203v75h166l-194 315v91h143z" />
    <glyph glyph-name="section" unicode="&#xa7;" horiz-adv-x="624" 
d="M304 705q82 0 144.5 -31t81.5 -81v-59h-125q-2 30 -30.5 48.5t-70.5 19.5q-39 0 -63 -16t-24 -40q0 -32 37.5 -50.5t91.5 -28.5t107.5 -23.5t91 -46t37.5 -84.5q0 -100 -113 -137q80 -41 80 -136q1 -87 -67 -141.5t-179 -53.5q-81 1 -143 33.5t-81 82.5v65h125
q2 -34 32.5 -56t76.5 -22q40 0 64 17.5t24 46.5q0 31 -26.5 50t-66.5 26.5t-86 18.5t-86 23.5t-66.5 44t-26.5 78.5q-1 49 28 84.5t75 51.5q-74 43 -74 133q1 82 65 132t167 51zM265 354q-35 -4 -56.5 -20.5t-21.5 -39.5q0 -19 10 -32t30 -21t36.5 -12t44 -8.5t39.5 -7.5
q38 5 61 22t23 42q0 19 -10 32.5t-31 21t-37 11t-47 7t-41 5.5z" />
    <glyph glyph-name="dieresis" unicode="&#xa8;" horiz-adv-x="529" 
d="M37 666q0 38 25.5 63t65.5 25t66 -25t26 -63t-26 -63t-66 -25t-65.5 25t-25.5 63zM309 666q0 38 25.5 63t65.5 25t66 -25t26 -63t-26 -63t-66 -25t-65.5 25t-25.5 63z" />
    <glyph glyph-name="copyright" unicode="&#xa9;" horiz-adv-x="1009" 
d="M47 259q0 194 127 316.5t330 122.5q204 0 331 -121.5t127 -317.5q0 -197 -127 -320.5t-331 -123.5q-203 0 -330 123.5t-127 320.5zM155 259q0 -155 97 -252.5t253 -97.5q155 0 252.5 97.5t97.5 252.5q0 152 -97.5 248t-252.5 96q-156 0 -253 -96t-97 -248zM747 391v-65
h-105q-12 44 -50.5 71.5t-87.5 27.5q-66 0 -109 -47t-43 -122q0 -74 44.5 -121.5t114.5 -47.5q44 0 81 28t51 72l104 1l1 -79q-22 -54 -87.5 -88.5t-149.5 -34.5q-124 0 -201.5 75t-77.5 195t77.5 195t201.5 75q82 0 147.5 -37.5t88.5 -97.5z" />
    <glyph glyph-name="guillemotleft" unicode="&#xab;" 
d="M210 0l-185 256l185 257h117v-73l-146 -184l146 -183v-73h-117zM484 0l-185 256l185 257h117v-73l-145 -184l145 -183v-73h-117z" />
    <glyph glyph-name="logicalnot" unicode="&#xac;" horiz-adv-x="686" 
d="M67 379h552v-309h-114l1 182h-439v127z" />
    <glyph glyph-name="registered" unicode="&#xae;" horiz-adv-x="1009" 
d="M504 698q204 0 331 -121.5t127 -317.5q0 -197 -127 -320.5t-331 -123.5q-203 0 -330 123.5t-127 320.5q0 194 127 316.5t330 122.5zM505 603q-156 0 -253 -96t-97 -248q0 -155 97 -252.5t253 -97.5q155 0 252.5 97.5t97.5 252.5q0 152 -97.5 248t-252.5 96zM551 513
q82 0 134 -43.5t52 -111.5q0 -51 -30 -89t-82 -53l92 -146v-60h-91l-114 194h-82v-194h-114v503h235zM528 436h-98v-162h101q39 0 64 22.5t25 60.5q0 37 -24.5 58t-67.5 21z" />
    <glyph glyph-name="macron" unicode="&#xaf;" horiz-adv-x="416" 
d="M37 695h342v-94h-342v94z" />
    <glyph glyph-name="degree" unicode="&#xb0;" horiz-adv-x="524" 
d="M37 543q0 95 62 153.5t163 58.5t163 -58.5t62 -153.5t-62 -153.5t-163 -58.5t-163 58.5t-62 153.5zM151 543q0 -50 30.5 -80.5t80.5 -30.5t81 30.5t31 80.5t-31 81t-81 31t-80.5 -31t-30.5 -81z" />
    <glyph glyph-name="plusminus" unicode="&#xb1;" horiz-adv-x="564" 
d="M47 0v111h470v-111h-470zM47 299v111h170v103h130v-103h170v-111h-170v-106h-130v106h-170z" />
    <glyph glyph-name="acute" unicode="&#xb4;" horiz-adv-x="276" 
d="M37 570v39l97 134h105v-46l-116 -127h-86z" />
    <glyph glyph-name="paragraph" unicode="&#xb6;" horiz-adv-x="802" 
d="M639 -211h-140v810h-95v-810h-140v512q-103 0 -165 57t-61 149t63 149t163 57h471v-114h-96v-810z" />
    <glyph glyph-name="periodcentered" unicode="&#xb7;" horiz-adv-x="257" 
d="M37 302q0 39 25.5 63.5t65.5 24.5q41 0 66.5 -24.5t25.5 -63.5q0 -38 -26 -63t-66 -25t-65.5 25t-25.5 63z" />
    <glyph glyph-name="cedilla" unicode="&#xb8;" horiz-adv-x="309" 
d="M101 21h81l-15 -95q47 0 75.5 -26.5t29.5 -70.5q-1 -44 -35 -71.5t-89 -27.5q-40 0 -70.5 19.5t-40.5 51.5v39h42q5 -22 21.5 -35t39.5 -13q20 0 32.5 12t12.5 32q0 22 -15.5 35t-40.5 13h-51z" />
    <glyph glyph-name="guillemotright" unicode="&#xbb;" 
d="M331 256l-184 -256h-117v73l145 183l-145 184v73h117zM606 256l-184 -256h-118v73l146 183l-146 184v73h118z" />
    <glyph glyph-name="questiondown" unicode="&#xbf;" horiz-adv-x="630" 
d="M406 517v-173h-75q-52 0 -83.5 -29.5t-31.5 -79.5q0 -47 32.5 -77t83.5 -30q47 0 81 31.5t40 81.5h145v-84q-27 -75 -101.5 -120.5t-173.5 -45.5q-128 0 -206.5 68.5t-78.5 174.5q-1 96 63 156t165 60v67h140zM427 657q0 -39 -25.5 -63.5t-65.5 -24.5t-65.5 24.5
t-25.5 63.5t25.5 63.5t65.5 24.5t65.5 -24.5t25.5 -63.5z" />
    <glyph glyph-name="Agrave" unicode="&#xc0;" horiz-adv-x="737" 
d="M242 713h260l205 -616v-97h-157l-37 115h-282l-37 -115h-157v97zM372 561l-106 -319h213zM425 809v-39h-86l-116 107v46h105z" />
    <glyph glyph-name="Aacute" unicode="&#xc1;" horiz-adv-x="730" 
d="M235 713h260l205 -616v-97h-157l-37 115h-282l-37 -115h-157v97zM365 561l-106 -319h213zM313 770v39l97 114h105v-46l-116 -107h-86z" />
    <glyph glyph-name="Acircumflex" unicode="&#xc2;" horiz-adv-x="730" 
d="M235 713h260l205 -616v-97h-157l-37 115h-282l-37 -115h-157v97zM365 561l-106 -319h213zM203 816l84 114h157l84 -114v-39h-85l-78 94l-76 -94h-86v39z" />
    <glyph glyph-name="Atilde" unicode="&#xc3;" horiz-adv-x="730" 
d="M235 713h260l205 -616v-97h-157l-37 115h-282l-37 -115h-157v97zM365 561l-106 -319h213zM267 937q41 0 91.5 -32t73.5 -32q19 0 33.5 10t18.5 27h74v-41q-14 -43 -49.5 -66.5t-79.5 -23.5q-45 0 -95 32t-73 32q-17 0 -29.5 -10t-15.5 -27h-74v40q14 44 47.5 67.5
t77.5 23.5z" />
    <glyph glyph-name="Adieresis" unicode="&#xc4;" horiz-adv-x="730" 
d="M235 713h260l205 -616v-97h-157l-37 115h-282l-37 -115h-157v97zM365 561l-106 -319h213zM138 848q0 39 25.5 63.5t65.5 24.5q41 0 66.5 -24.5t25.5 -63.5t-25.5 -63.5t-66.5 -24.5q-40 0 -65.5 24.5t-25.5 63.5zM410 848q0 39 25.5 63.5t65.5 24.5q41 0 66.5 -24.5
t25.5 -63.5t-25.5 -63.5t-66.5 -24.5q-40 0 -65.5 24.5t-25.5 63.5z" />
    <glyph glyph-name="Aring" unicode="&#xc5;" horiz-adv-x="730" 
d="M235 713h260l205 -616v-97h-157l-37 115h-282l-37 -115h-157v97zM365 561l-106 -319h213zM220 882q0 55 40 89t105 34t105 -34t40 -89q0 -54 -40 -88t-105 -34q-64 0 -104.5 34t-40.5 88zM308 882q0 -20 16 -33.5t41 -13.5t41 13.5t16 33.5q0 21 -16 34t-41 13t-41 -13
t-16 -34z" />
    <glyph glyph-name="AE" unicode="&#xc6;" horiz-adv-x="970" 
d="M475 115h-232l-56 -115h-157v84l315 629h575v-143h-286v-146h246v-125h-246v-156h296v-143h-455v115zM475 240v352l-173 -352h173z" />
    <glyph glyph-name="Ccedilla" unicode="&#xc7;" horiz-adv-x="821" 
d="M626 255h145v-95q-38 -74 -123.5 -124.5t-183.5 -58.5l-6 -39q47 0 75.5 -26.5t28.5 -70.5q0 -45 -34 -72t-90 -27q-40 0 -70 19.5t-40 51.5v39h42q4 -22 20.5 -35t39.5 -12q21 -1 33.5 11t12.5 32q0 22 -15.5 35.5t-40.5 13.5h-51l13 81q-149 17 -243 121.5t-94 256.5
q0 166 110 274t279 108q106 0 201 -53.5t136 -136.5v-94h-145q-13 59 -64.5 94.5t-121.5 36.5q-96 1 -156 -63t-60 -166q0 -100 60 -164t155 -64q70 0 122 35.5t65 91.5z" />
    <glyph glyph-name="Egrave" unicode="&#xc8;" horiz-adv-x="629" 
d="M589 0h-512v713h502v-143h-330v-143h290v-124h-290v-160h340v-143zM382 809v-39h-86l-116 107v46h105z" />
    <glyph glyph-name="Eacute" unicode="&#xc9;" horiz-adv-x="629" 
d="M589 0h-512v713h502v-143h-330v-143h290v-124h-290v-160h340v-143zM277 770v39l97 114h105v-46l-116 -107h-86z" />
    <glyph glyph-name="Ecircumflex" unicode="&#xca;" horiz-adv-x="629" 
d="M589 0h-512v713h502v-143h-330v-143h290v-124h-290v-160h340v-143zM167 816l84 114h157l83 -114v-39h-84l-78 94l-76 -94h-86v39z" />
    <glyph glyph-name="Edieresis" unicode="&#xcb;" horiz-adv-x="639" 
d="M592 0h-512v713h502v-143h-330v-143h290v-124h-290v-160h340v-143zM105 848q0 39 26 63.5t66 24.5t65.5 -24.5t25.5 -63.5t-25.5 -63.5t-65.5 -24.5t-66 24.5t-26 63.5zM377 848q0 39 25.5 63.5t65.5 24.5q41 0 66.5 -24.5t25.5 -63.5t-25.5 -63.5t-66.5 -24.5
q-40 0 -65.5 24.5t-25.5 63.5z" />
    <glyph glyph-name="Igrave" unicode="&#xcc;" horiz-adv-x="358" 
d="M106 0v713h178v-713h-178zM249 809v-39h-86l-116 107v46h105z" />
    <glyph glyph-name="Iacute" unicode="&#xcd;" horiz-adv-x="328" 
d="M77 0v713h179v-713h-179zM106 770v39l97 114h105v-46l-116 -107h-86z" />
    <glyph glyph-name="Icircumflex" unicode="&#xce;" horiz-adv-x="330" 
d="M79 0v713h178v-713h-178zM2 816l85 114h156l84 -114v-39h-85l-77 94l-77 -94h-86v39z" />
    <glyph glyph-name="Idieresis" unicode="&#xcf;" horiz-adv-x="330" 
d="M79 0v713h178v-713h-178zM-62 848q0 39 25.5 63.5t65.5 24.5t65.5 -24.5t25.5 -63.5t-25.5 -63.5t-65.5 -24.5t-65.5 24.5t-25.5 63.5zM209 848q0 39 26 63.5t66 24.5t65.5 -24.5t25.5 -63.5t-25.5 -63.5t-65.5 -24.5t-66 24.5t-26 63.5z" />
    <glyph glyph-name="Ntilde" unicode="&#xd1;" horiz-adv-x="814" 
d="M737 713v-713h-186l-308 496v-496h-166v713h187l308 -497v497h165zM315 959q41 0 91.5 -32t73.5 -32q19 0 33.5 10t18.5 27h74v-41q-14 -43 -49.5 -66.5t-79.5 -23.5q-45 0 -95 32t-73 32q-17 0 -29.5 -10t-15.5 -27h-74v40q14 44 47.5 67.5t77.5 23.5z" />
    <glyph glyph-name="Ograve" unicode="&#xd2;" horiz-adv-x="872" 
d="M40 356q0 170 110 276t286 106t286 -106t110 -276t-110 -275.5t-286 -105.5t-286 105.5t-110 275.5zM219 356q0 -101 60.5 -164.5t156.5 -63.5t156.5 63.5t60.5 164.5t-60.5 165t-156.5 64t-156.5 -64t-60.5 -165zM488 809v-39h-85l-116 107v46h104z" />
    <glyph glyph-name="Oacute" unicode="&#xd3;" horiz-adv-x="872" 
d="M40 356q0 170 110 276t286 106t286 -106t110 -276t-110 -275.5t-286 -105.5t-286 105.5t-110 275.5zM219 356q0 -101 60.5 -164.5t156.5 -63.5t156.5 63.5t60.5 164.5t-60.5 165t-156.5 64t-156.5 -64t-60.5 -165zM384 770v39l97 114h104v-46l-116 -107h-85z" />
    <glyph glyph-name="Ocircumflex" unicode="&#xd4;" horiz-adv-x="872" 
d="M40 356q0 170 110 276t286 106t286 -106t110 -276t-110 -275.5t-286 -105.5t-286 105.5t-110 275.5zM219 356q0 -101 60.5 -164.5t156.5 -63.5t156.5 63.5t60.5 164.5t-60.5 165t-156.5 64t-156.5 -64t-60.5 -165zM274 816l84 114h156l84 -114v-39h-85l-77 94l-77 -94
h-85v39z" />
    <glyph glyph-name="Otilde" unicode="&#xd5;" horiz-adv-x="872" 
d="M40 356q0 170 110 276t286 106t286 -106t110 -276t-110 -275.5t-286 -105.5t-286 105.5t-110 275.5zM219 356q0 -101 60.5 -164.5t156.5 -63.5t156.5 63.5t60.5 164.5t-60.5 165t-156.5 64t-156.5 -64t-60.5 -165zM335 937q41 0 91.5 -32t73.5 -32q19 0 33.5 10t18.5 27
h74v-41q-14 -43 -49.5 -66.5t-79.5 -23.5q-45 0 -95 32t-73 32q-17 0 -29.5 -10t-15.5 -27h-74v40q14 44 47.5 67.5t77.5 23.5z" />
    <glyph glyph-name="Odieresis" unicode="&#xd6;" horiz-adv-x="872" 
d="M40 356q0 170 110 276t286 106t286 -106t110 -276t-110 -275.5t-286 -105.5t-286 105.5t-110 275.5zM219 356q0 -101 60.5 -164.5t156.5 -63.5t156.5 63.5t60.5 164.5t-60.5 165t-156.5 64t-156.5 -64t-60.5 -165zM209 848q0 39 25.5 63.5t65.5 24.5t65.5 -24.5
t25.5 -63.5t-25.5 -63.5t-65.5 -24.5t-65.5 24.5t-25.5 63.5zM481 848q0 39 25.5 63.5t65.5 24.5t65.5 -24.5t25.5 -63.5t-25.5 -63.5t-65.5 -24.5t-65.5 24.5t-25.5 63.5z" />
    <glyph glyph-name="multiply" unicode="&#xd7;" horiz-adv-x="404" 
d="M27 386v104h78l97 -100l97 100h78v-104l-86 -89l86 -88v-104h-78l-97 100l-97 -100h-78v104l85 88z" />
    <glyph glyph-name="Oslash" unicode="&#xd8;" horiz-adv-x="852" 
d="M40 356q0 166 109 274t277 108q71 0 140 -24l75 146h78v-39l-75 -145q79 -50 123.5 -133.5t44.5 -186.5q0 -166 -109 -273.5t-277 -107.5q-69 0 -132 20l-69 -135h-78v39l68 132q-82 50 -128.5 134.5t-46.5 190.5zM219 356q0 -111 72 -177l203 395q-33 11 -68 11
q-90 0 -148.5 -64.5t-58.5 -164.5zM633 356q0 104 -65 171l-201 -391q29 -8 59 -8q90 0 148.5 64t58.5 164z" />
    <glyph glyph-name="Ugrave" unicode="&#xd9;" horiz-adv-x="780" 
d="M535 713h178v-417q0 -142 -90 -231.5t-233 -89.5t-233 89.5t-90 231.5v417h179v-411q0 -70 39 -121.5t105 -52.5q65 0 105 49t40 125v411zM443 809v-39h-86l-116 107v46h105z" />
    <glyph glyph-name="Uacute" unicode="&#xda;" horiz-adv-x="780" 
d="M535 713h178v-417q0 -142 -90 -231.5t-233 -89.5t-233 89.5t-90 231.5v417h179v-411q0 -70 39 -121.5t105 -52.5q65 0 105 49t40 125v411zM338 770v39l97 114h105v-46l-116 -107h-86z" />
    <glyph glyph-name="Ucircumflex" unicode="&#xdb;" horiz-adv-x="780" 
d="M535 713h178v-417q0 -142 -90 -231.5t-233 -89.5t-233 89.5t-90 231.5v417h179v-411q0 -70 39 -121.5t105 -52.5q65 0 105 49t40 125v411zM228 816l84 114h157l84 -114v-39h-85l-78 94l-76 -94h-86v39z" />
    <glyph glyph-name="Udieresis" unicode="&#xdc;" horiz-adv-x="780" 
d="M535 713h178v-417q0 -142 -90 -231.5t-233 -89.5t-233 89.5t-90 231.5v417h179v-411q0 -70 39 -121.5t105 -52.5q65 0 105 49t40 125v411zM163 848q0 39 25.5 63.5t65.5 24.5q41 0 66.5 -24.5t25.5 -63.5t-25.5 -63.5t-66.5 -24.5q-40 0 -65.5 24.5t-25.5 63.5zM435 848
q0 39 25.5 63.5t65.5 24.5q41 0 66.5 -24.5t25.5 -63.5t-25.5 -63.5t-66.5 -24.5q-40 0 -65.5 24.5t-25.5 63.5z" />
    <glyph glyph-name="Yacute" unicode="&#xdd;" horiz-adv-x="687" 
d="M168 713l177 -312l170 312h147v-91l-227 -375v-247h-179v247l-231 375v91h143zM293 770v39l97 114h104v-46l-115 -107h-86z" />
    <glyph glyph-name="germandbls" unicode="&#xdf;" horiz-adv-x="784" 
d="M241 0h-179v490q0 108 89 176t232 68q131 0 212 -58t83 -151q1 -57 -42.5 -98t-113.5 -49q95 -9 155 -63.5t61 -131.5q1 -92 -63.5 -150t-167.5 -58q-57 0 -113.5 17.5t-88.5 44.5v119h69q5 -25 29 -41t56 -15q44 0 72.5 28.5t27.5 74.5q0 53 -47.5 86.5t-121.5 33.5h-42
l1 104h45q53 0 86.5 24t33.5 61q0 43 -37.5 69.5t-96.5 26.5q-62 0 -100.5 -31t-38.5 -80v-497z" />
    <glyph glyph-name="agrave" unicode="&#xe0;" horiz-adv-x="656" 
d="M322 533q125 0 206 -78t81 -199v-256h-146v61q-65 -81 -174 -81q-112 0 -182 77t-70 199q0 121 80 199t205 78zM323 393q-56 0 -91.5 -38.5t-35.5 -98.5q0 -59 36 -97.5t91 -38.5t91 38.5t36 97.5q0 60 -35.5 98.5t-91.5 38.5zM380 609v-39h-86l-116 127v46h105z" />
    <glyph glyph-name="aacute" unicode="&#xe1;" horiz-adv-x="656" 
d="M322 533q125 0 206 -78t81 -199v-256h-146v61q-65 -81 -174 -81q-112 0 -182 77t-70 199q0 121 80 199t205 78zM323 393q-56 0 -91.5 -38.5t-35.5 -98.5q0 -59 36 -97.5t91 -38.5t91 38.5t36 97.5q0 60 -35.5 98.5t-91.5 38.5zM276 570v39l97 134h105v-46l-116 -127h-86z
" />
    <glyph glyph-name="acircumflex" unicode="&#xe2;" horiz-adv-x="656" 
d="M322 533q125 0 206 -78t81 -199v-256h-146v61q-65 -81 -174 -81q-112 0 -182 77t-70 199q0 121 80 199t205 78zM323 393q-56 0 -91.5 -38.5t-35.5 -98.5q0 -59 36 -97.5t91 -38.5t91 38.5t36 97.5q0 60 -35.5 98.5t-91.5 38.5zM166 616l84 134h156l85 -134v-39h-86
l-77 113l-77 -113h-85v39z" />
    <glyph glyph-name="atilde" unicode="&#xe3;" horiz-adv-x="656" 
d="M322 533q125 0 206 -78t81 -199v-256h-146v61q-65 -81 -174 -81q-112 0 -182 77t-70 199q0 121 80 199t205 78zM323 393q-56 0 -91.5 -38.5t-35.5 -98.5q0 -59 36 -97.5t91 -38.5t91 38.5t36 97.5q0 60 -35.5 98.5t-91.5 38.5zM235 735q41 0 91.5 -32t73.5 -32
q19 0 33.5 10t18.5 27h74v-41q-14 -43 -49.5 -66.5t-79.5 -23.5q-45 0 -95 32t-73 32q-17 0 -29.5 -10t-15.5 -27h-74v40q14 44 47.5 67.5t77.5 23.5z" />
    <glyph glyph-name="adieresis" unicode="&#xe4;" horiz-adv-x="656" 
d="M322 533q125 0 206 -78t81 -199v-256h-146v61q-65 -81 -174 -81q-112 0 -182 77t-70 199q0 121 80 199t205 78zM323 393q-56 0 -91.5 -38.5t-35.5 -98.5q0 -59 36 -97.5t91 -38.5t91 38.5t36 97.5q0 60 -35.5 98.5t-91.5 38.5zM96 666q0 38 25.5 63t65.5 25t66 -25
t26 -63t-26 -63t-66 -25t-65.5 25t-25.5 63zM368 666q0 38 25.5 63t65.5 25t66 -25t26 -63t-26 -63t-66 -25t-65.5 25t-25.5 63z" />
    <glyph glyph-name="aring" unicode="&#xe5;" horiz-adv-x="656" 
d="M322 533q125 0 206 -78t81 -199v-256h-146v61q-65 -81 -174 -81q-112 0 -182 77t-70 199q0 121 80 199t205 78zM323 393q-56 0 -91.5 -38.5t-35.5 -98.5q0 -59 36 -97.5t91 -38.5t91 38.5t36 97.5q0 60 -35.5 98.5t-91.5 38.5zM183 692q0 59 40 96t105 37t105 -37t40 -96
t-40 -95.5t-105 -36.5q-64 0 -104.5 36.5t-40.5 95.5zM271 692q0 -25 16 -41t41 -16t41 16t16 41q0 26 -15.5 41.5t-41.5 15.5t-41.5 -15.5t-15.5 -41.5z" />
    <glyph glyph-name="ae" unicode="&#xe6;" horiz-adv-x="1053" 
d="M450 513h94v-86q55 106 199 106q121 0 196.5 -75.5t76.5 -195.5q0 -38 -4 -57h-392q13 -48 46.5 -76.5t79.5 -28.5q37 0 68 17.5t43 46.5h123v-58q-25 -56 -93 -91t-151 -35q-138 0 -192 104v-84h-94v75q-65 -95 -180 -95q-103 0 -168 77t-65 199t65 199.5t168 77.5
q114 0 180 -96v76zM450 256q0 66 -35.5 108t-91.5 42t-91.5 -41.5t-35.5 -108.5q0 -65 35.5 -107t91.5 -42q55 0 91 41t36 108zM735 413q-50 0 -82.5 -37.5t-37.5 -98.5h241q2 56 -32.5 96t-88.5 40z" />
    <glyph glyph-name="ccedilla" unicode="&#xe7;" horiz-adv-x="596" 
d="M559 391v-65h-124q-10 32 -40.5 53t-69.5 21q-57 0 -93 -40t-36 -104q0 -63 35.5 -103t91.5 -40q39 0 70 21t42 53l124 1v-79q-20 -51 -75.5 -85.5t-127.5 -41.5l-6 -43q47 0 75.5 -27t28.5 -71t-34 -71t-90 -27q-40 0 -70 19.5t-40 51.5v39h42q4 -22 20.5 -35t39.5 -13
q21 0 33.5 12t12.5 32q0 22 -15.5 35t-40.5 13h-51l14 86q-108 14 -173 88.5t-65 184.5q0 123 79.5 200t206.5 77q81 0 146.5 -39.5t89.5 -102.5z" />
    <glyph glyph-name="egrave" unicode="&#xe8;" horiz-adv-x="636" 
d="M326 533q121 0 197 -76.5t76 -198.5q0 -40 -5 -63h-389q14 -44 45 -69.5t75 -25.5q38 0 68.5 16.5t40.5 42.5h128v-58q-24 -55 -91 -88t-149 -33q-127 0 -206 78t-79 202q0 121 80.5 197t208.5 76zM317 413q-49 0 -81 -34.5t-39 -91.5h242q-1 54 -35 90t-87 36zM372 609
v-39h-86l-116 127v46h105z" />
    <glyph glyph-name="eacute" unicode="&#xe9;" horiz-adv-x="636" 
d="M326 533q121 0 197 -76.5t76 -198.5q0 -40 -5 -63h-389q14 -44 45 -69.5t75 -25.5q38 0 68.5 16.5t40.5 42.5h128v-58q-24 -55 -91 -88t-149 -33q-127 0 -206 78t-79 202q0 121 80.5 197t208.5 76zM317 413q-49 0 -81 -34.5t-39 -91.5h242q-1 54 -35 90t-87 36zM267 570
v39l97 134h105v-46l-116 -127h-86z" />
    <glyph glyph-name="ecircumflex" unicode="&#xea;" horiz-adv-x="636" 
d="M326 533q121 0 197 -76.5t76 -198.5q0 -40 -5 -63h-389q14 -44 45 -69.5t75 -25.5q38 0 68.5 16.5t40.5 42.5h128v-58q-24 -55 -91 -88t-149 -33q-127 0 -206 78t-79 202q0 121 80.5 197t208.5 76zM317 413q-49 0 -81 -34.5t-39 -91.5h242q-1 54 -35 90t-87 36zM157 616
l84 134h156l85 -134v-39h-86l-77 113l-77 -113h-85v39z" />
    <glyph glyph-name="edieresis" unicode="&#xeb;" horiz-adv-x="636" 
d="M326 533q121 0 197 -76.5t76 -198.5q0 -40 -5 -63h-389q14 -44 45 -69.5t75 -25.5q38 0 68.5 16.5t40.5 42.5h128v-58q-24 -55 -91 -88t-149 -33q-127 0 -206 78t-79 202q0 121 80.5 197t208.5 76zM317 413q-49 0 -81 -34.5t-39 -91.5h242q-1 54 -35 90t-87 36zM87 666
q0 38 25.5 63t65.5 25t66 -25t26 -63t-26 -63t-66 -25t-65.5 25t-25.5 63zM359 666q0 38 25.5 63t65.5 25t66 -25t26 -63t-26 -63t-66 -25t-65.5 25t-25.5 63z" />
    <glyph glyph-name="igrave" unicode="&#xec;" horiz-adv-x="293" 
d="M67 0v513h159v-513h-159zM204 609v-39h-86l-116 127v46h105z" />
    <glyph glyph-name="iacute" unicode="&#xed;" horiz-adv-x="293" 
d="M67 0v513h159v-513h-159zM89 570v39l97 134h105v-46l-116 -127h-86z" />
    <glyph glyph-name="icircumflex" unicode="&#xee;" horiz-adv-x="293" 
d="M67 0v513h159v-513h-159zM-16 616l85 134h156l84 -134v-39h-86l-76 113l-77 -113h-86v39z" />
    <glyph glyph-name="idieresis" unicode="&#xef;" horiz-adv-x="293" 
d="M67 0v513h159v-513h-159zM-80 666q0 38 25.5 63t65.5 25t65.5 -25t25.5 -63t-25.5 -63t-65.5 -25t-65.5 25t-25.5 63zM191 666q0 38 25.5 63t65.5 25t66 -25t26 -63t-26 -63t-66 -25t-65.5 25t-25.5 63z" />
    <glyph glyph-name="ntilde" unicode="&#xf1;" 
d="M379 533q85 0 140 -59.5t55 -151.5v-322h-159v284q0 48 -26 78.5t-68 30.5q-41 0 -68 -30t-27 -76v-287h-159v513h154v-70q61 90 158 90zM228 735q41 0 91.5 -32t73.5 -32q19 0 33.5 10t18.5 27h74v-41q-14 -43 -49.5 -66.5t-79.5 -23.5q-45 0 -95 32t-73 32
q-17 0 -29.5 -10t-15.5 -27h-74v40q14 44 47.5 67.5t77.5 23.5z" />
    <glyph glyph-name="ograve" unicode="&#xf2;" horiz-adv-x="646" 
d="M609 256q0 -122 -79.5 -199t-206.5 -77t-206.5 77t-79.5 199q0 123 79.5 200t206.5 77t206.5 -77t79.5 -200zM450 256q0 61 -35.5 99t-91.5 38t-91.5 -38t-35.5 -99q0 -60 35.5 -98t91.5 -38t91.5 38t35.5 98zM375 609v-39h-85l-116 127v46h105z" />
    <glyph glyph-name="oacute" unicode="&#xf3;" horiz-adv-x="646" 
d="M609 256q0 -122 -79.5 -199t-206.5 -77t-206.5 77t-79.5 199q0 123 79.5 200t206.5 77t206.5 -77t79.5 -200zM450 256q0 61 -35.5 99t-91.5 38t-91.5 -38t-35.5 -99q0 -60 35.5 -98t91.5 -38t91.5 38t35.5 98zM271 570v39l96 134h105v-46l-116 -127h-85z" />
    <glyph glyph-name="ocircumflex" unicode="&#xf4;" horiz-adv-x="646" 
d="M609 256q0 -122 -79.5 -199t-206.5 -77t-206.5 77t-79.5 199q0 123 79.5 200t206.5 77t206.5 -77t79.5 -200zM450 256q0 61 -35.5 99t-91.5 38t-91.5 -38t-35.5 -99q0 -60 35.5 -98t91.5 -38t91.5 38t35.5 98zM161 616l84 134h156l84 -134v-39h-85l-77 113l-77 -113h-85
v39z" />
    <glyph glyph-name="otilde" unicode="&#xf5;" horiz-adv-x="646" 
d="M609 256q0 -122 -79.5 -199t-206.5 -77t-206.5 77t-79.5 199q0 123 79.5 200t206.5 77t206.5 -77t79.5 -200zM450 256q0 61 -35.5 99t-91.5 38t-91.5 -38t-35.5 -99q0 -60 35.5 -98t91.5 -38t91.5 38t35.5 98zM226 735q41 0 91.5 -32t73.5 -32q19 0 33.5 10t18.5 27h74
v-41q-14 -43 -49.5 -66.5t-79.5 -23.5q-45 0 -95 32t-73 32q-17 0 -29.5 -10t-15.5 -27h-74v40q14 44 47.5 67.5t77.5 23.5z" />
    <glyph glyph-name="odieresis" unicode="&#xf6;" horiz-adv-x="646" 
d="M609 256q0 -122 -79.5 -199t-206.5 -77t-206.5 77t-79.5 199q0 123 79.5 200t206.5 77t206.5 -77t79.5 -200zM450 256q0 61 -35.5 99t-91.5 38t-91.5 -38t-35.5 -99q0 -60 35.5 -98t91.5 -38t91.5 38t35.5 98zM96 666q0 38 25.5 63t65.5 25t65.5 -25t25.5 -63t-25.5 -63
t-65.5 -25t-65.5 25t-25.5 63zM368 666q0 38 25.5 63t65.5 25t65.5 -25t25.5 -63t-25.5 -63t-65.5 -25t-65.5 25t-25.5 63z" />
    <glyph glyph-name="divide" unicode="&#xf7;" horiz-adv-x="544" 
d="M194 95q0 33 22 54t56 21t56 -21t22 -54t-22 -54t-56 -21t-56 21t-22 54zM47 246v114h450v-114h-450zM194 505q0 32 22 53.5t56 21.5t56 -21.5t22 -53.5q0 -33 -22 -54.5t-56 -21.5t-56 21.5t-22 54.5z" />
    <glyph glyph-name="oslash" unicode="&#xf8;" horiz-adv-x="659" 
d="M137 -47l34 65q-64 36 -99 97.5t-35 140.5q0 123 81 200t211 77q53 0 100 -14l42 81h65v-33l-40 -78q59 -36 92.5 -96.5t33.5 -136.5q0 -122 -81.5 -199t-211.5 -77q-46 0 -90 11l-37 -71h-65v33zM177 256q0 -80 51 -126l146 283q-21 6 -45 6q-67 0 -109.5 -45.5
t-42.5 -117.5zM482 256q0 72 -45 119l-143 -278q16 -3 35 -3q67 0 110 45.5t43 116.5z" />
    <glyph glyph-name="ugrave" unicode="&#xf9;" 
d="M252 -20q-85 0 -140 59.5t-55 151.5v322h159v-284q0 -48 26 -78.5t68 -30.5q41 0 68 30t27 76v287h159v-513h-154v70q-61 -90 -158 -90zM363 609v-39h-86l-116 127v46h105z" />
    <glyph glyph-name="uacute" unicode="&#xfa;" 
d="M252 -20q-85 0 -140 59.5t-55 151.5v322h159v-284q0 -48 26 -78.5t68 -30.5q41 0 68 30t27 76v287h159v-513h-154v70q-61 -90 -158 -90zM258 570v39l97 134h105v-46l-116 -127h-86z" />
    <glyph glyph-name="ucircumflex" unicode="&#xfb;" 
d="M252 -20q-85 0 -140 59.5t-55 151.5v322h159v-284q0 -48 26 -78.5t68 -30.5q41 0 68 30t27 76v287h159v-513h-154v70q-61 -90 -158 -90zM148 616l84 134h156l85 -134v-39h-86l-77 113l-77 -113h-85v39z" />
    <glyph glyph-name="udieresis" unicode="&#xfc;" 
d="M252 -20q-85 0 -140 59.5t-55 151.5v322h159v-284q0 -48 26 -78.5t68 -30.5q41 0 68 30t27 76v287h159v-513h-154v70q-61 -90 -158 -90zM84 666q0 38 25.5 63t65.5 25t66 -25t26 -63t-26 -63t-66 -25t-65.5 25t-25.5 63zM356 666q0 38 25.5 63t65.5 25t66 -25t26 -63
t-26 -63t-66 -25t-65.5 25t-25.5 63z" />
    <glyph glyph-name="yacute" unicode="&#xfd;" horiz-adv-x="565" 
d="M64 -106q21 -7 52 -7q72 0 119 107l-220 450v69h139l144 -320l113 320h139v-69l-175 -463q-79 -213 -216 -213q-55 0 -95 16v110zM224 570v39l97 134h105v-46l-116 -127h-86z" />
    <glyph glyph-name="ydieresis" unicode="&#xff;" horiz-adv-x="565" 
d="M64 -106q21 -7 52 -7q72 0 119 107l-220 450v69h139l144 -320l113 320h139v-69l-175 -463q-79 -213 -216 -213q-55 0 -95 16v110zM50 666q0 38 25.5 63t65.5 25t66 -25t26 -63t-26 -63t-66 -25t-65.5 25t-25.5 63zM322 666q0 38 25.5 63t65.5 25t66 -25t26 -63t-26 -63
t-66 -25t-65.5 25t-25.5 63z" />
    <glyph glyph-name="Amacron" unicode="&#x100;" horiz-adv-x="730" 
d="M235 713h260l205 -616v-97h-157l-37 115h-282l-37 -115h-157v97zM365 561l-106 -319h213zM194 875h342v-94h-342v94z" />
    <glyph glyph-name="amacron" unicode="&#x101;" horiz-adv-x="656" 
d="M322 533q125 0 206 -78t81 -199v-256h-146v61q-65 -81 -174 -81q-112 0 -182 77t-70 199q0 121 80 199t205 78zM323 393q-56 0 -91.5 -38.5t-35.5 -98.5q0 -59 36 -97.5t91 -38.5t91 38.5t36 97.5q0 60 -35.5 98.5t-91.5 38.5zM157 675h342v-94h-342v94z" />
    <glyph glyph-name="Abreve" unicode="&#x102;" horiz-adv-x="730" 
d="M235 713h260l205 -616v-97h-157l-37 115h-282l-37 -115h-157v97zM365 561l-106 -319h213zM365 760q-58 0 -99.5 28t-52.5 73v52h94q0 -32 16 -51.5t42 -20.5q26 0 42 20t16 52h94v-52q-10 -46 -51.5 -73.5t-100.5 -27.5z" />
    <glyph glyph-name="abreve" unicode="&#x103;" horiz-adv-x="656" 
d="M322 533q125 0 206 -78t81 -199v-256h-146v61q-65 -81 -174 -81q-112 0 -182 77t-70 199q0 121 80 199t205 78zM323 393q-56 0 -91.5 -38.5t-35.5 -98.5q0 -59 36 -97.5t91 -38.5t91 38.5t36 97.5q0 60 -35.5 98.5t-91.5 38.5zM328 560q-56 0 -98 33t-54 88v52h94
q0 -41 16 -66t42 -25t42 25t16 66h94v-52q-12 -55 -54 -88t-98 -33z" />
    <glyph glyph-name="Aogonek" unicode="&#x104;" horiz-adv-x="729" 
d="M235 713h260l205 -616v-97h-25q-107 -33 -107 -94q0 -38 40 -69t105 -43v-64h-107q-57 18 -93 61t-36 94q0 78 97 115h-31l-37 115h-282l-37 -115h-157v97zM365 561l-106 -319h213z" />
    <glyph glyph-name="aogonek" unicode="&#x105;" horiz-adv-x="659" 
d="M322 533q125 0 206 -78t81 -199v-256h-23q-107 -33 -107 -94q0 -38 40.5 -69t105.5 -43v-64h-108q-56 18 -92 61t-36 94q0 78 97 115h-23v61q-65 -81 -174 -81q-112 0 -182 77t-70 199q0 121 80 199t205 78zM323 393q-56 0 -91.5 -38.5t-35.5 -98.5q0 -59 36 -97.5
t91 -38.5t91 38.5t36 97.5q0 60 -35.5 98.5t-91.5 38.5z" />
    <glyph glyph-name="Cacute" unicode="&#x106;" horiz-adv-x="821" 
d="M626 255h145v-95q-41 -80 -136 -132.5t-201 -52.5q-169 0 -279 107.5t-110 273.5t110 274t279 108q106 0 201 -53.5t136 -136.5v-94h-145q-13 59 -64.5 94.5t-121.5 36.5q-96 1 -156 -63t-60 -166q0 -100 60 -164t155 -64q70 0 122 35.5t65 91.5zM379 770v39l97 114h104
v-46l-116 -107h-85z" />
    <glyph glyph-name="cacute" unicode="&#x107;" horiz-adv-x="596" 
d="M559 391v-65h-124q-10 32 -40.5 53t-69.5 21q-57 0 -93 -40t-36 -104q0 -63 35.5 -103t91.5 -40q39 0 70 21t42 53l124 1v-79q-23 -57 -88.5 -93t-148.5 -36q-127 0 -206 77t-79 199q0 123 79.5 200t206.5 77q81 0 146.5 -39.5t89.5 -102.5zM281 570v39l97 134h104v-46
l-116 -127h-85z" />
    <glyph glyph-name="Ccircumflex" unicode="&#x108;" horiz-adv-x="821" 
d="M626 255h145v-95q-41 -80 -136 -132.5t-201 -52.5q-169 0 -279 107.5t-110 273.5t110 274t279 108q106 0 201 -53.5t136 -136.5v-94h-145q-13 59 -64.5 94.5t-121.5 36.5q-96 1 -156 -63t-60 -166q0 -100 60 -164t155 -64q70 0 122 35.5t65 91.5zM269 816l84 114h156
l84 -114v-39h-85l-77 94l-77 -94h-85v39z" />
    <glyph glyph-name="ccircumflex" unicode="&#x109;" horiz-adv-x="596" 
d="M559 391v-65h-124q-10 32 -40.5 53t-69.5 21q-57 0 -93 -40t-36 -104q0 -63 35.5 -103t91.5 -40q39 0 70 21t42 53l124 1v-79q-23 -57 -88.5 -93t-148.5 -36q-127 0 -206 77t-79 199q0 123 79.5 200t206.5 77q81 0 146.5 -39.5t89.5 -102.5zM161 616l85 134h156l84 -134
v-39h-86l-77 113l-77 -113h-85v39z" />
    <glyph glyph-name="Cdotaccent" unicode="&#x10a;" horiz-adv-x="821" 
d="M626 255h145v-95q-41 -80 -136 -132.5t-201 -52.5q-169 0 -279 107.5t-110 273.5t110 274t279 108q106 0 201 -53.5t136 -136.5v-94h-145q-13 59 -64.5 94.5t-121.5 36.5q-96 1 -156 -63t-60 -166q0 -100 60 -164t155 -64q70 0 122 35.5t65 91.5zM342 842q0 37 24.5 59
t65.5 22t66.5 -22t25.5 -59t-25.5 -59.5t-66.5 -22.5t-66 22.5t-24 59.5z" />
    <glyph glyph-name="cdotaccent" unicode="&#x10b;" horiz-adv-x="596" 
d="M559 391v-65h-124q-10 32 -40.5 53t-69.5 21q-57 0 -93 -40t-36 -104q0 -63 35.5 -103t91.5 -40q39 0 70 21t42 53l124 1v-79q-23 -57 -88.5 -93t-148.5 -36q-127 0 -206 77t-79 199q0 123 79.5 200t206.5 77q81 0 146.5 -39.5t89.5 -102.5zM232 648q0 39 26 63.5
t65 24.5q41 0 66.5 -24.5t25.5 -63.5t-25.5 -63.5t-66.5 -24.5q-39 0 -65 24.5t-26 63.5z" />
    <glyph glyph-name="Ccaron" unicode="&#x10c;" horiz-adv-x="821" 
d="M626 255h145v-95q-41 -80 -136 -132.5t-201 -52.5q-169 0 -279 107.5t-110 273.5t110 274t279 108q106 0 201 -53.5t136 -136.5v-94h-145q-13 59 -64.5 94.5t-121.5 36.5q-96 1 -156 -63t-60 -166q0 -100 60 -164t155 -64q70 0 122 35.5t65 91.5zM353 770l-84 114v39h85
l77 -94l77 94h85v-39l-84 -114h-156z" />
    <glyph glyph-name="ccaron" unicode="&#x10d;" horiz-adv-x="596" 
d="M559 391v-65h-124q-10 32 -40.5 53t-69.5 21q-57 0 -93 -40t-36 -104q0 -63 35.5 -103t91.5 -40q39 0 70 21t42 53l124 1v-79q-23 -57 -88.5 -93t-148.5 -36q-127 0 -206 77t-79 199q0 123 79.5 200t206.5 77q81 0 146.5 -39.5t89.5 -102.5zM246 570l-85 134v39h85
l77 -113l77 113h86v-39l-84 -134h-156z" />
    <glyph glyph-name="Dcaron" unicode="&#x10e;" horiz-adv-x="796" 
d="M761 356q0 -160 -112.5 -258t-297.5 -98h-274v713h274q184 0 297 -98t113 -259zM351 575h-100v-437h100q105 0 168.5 59.5t63.5 158.5q0 100 -63.5 159.5t-168.5 59.5zM298 770l-84 114v39h85l77 -94l77 94h85v-39l-84 -114h-156z" />
    <glyph glyph-name="dcaron" unicode="&#x10f;" horiz-adv-x="742" 
d="M438 743h159v-506q0 -112 -78 -184.5t-199 -72.5q-125 0 -206.5 78t-81.5 198t74 198.5t187 78.5q86 0 145 -56v266zM191 256q0 -59 36 -97.5t91 -38.5t90.5 38.5t36.5 97.5q0 60 -35.5 98.5t-91.5 38.5t-91.5 -38.5t-35.5 -98.5zM634 684q0 30 20 49.5t50 19.5
q36 0 59.5 -26t23.5 -67q0 -53 -25.5 -100.5t-65.5 -66.5h-52v36q23 8 38 30.5t15 49.5q-28 0 -45.5 21.5t-17.5 53.5z" />
    <glyph glyph-name="Dcroat" unicode="&#x110;" horiz-adv-x="845" 
d="M800 356q0 -160 -112.5 -258t-297.5 -98h-274v337h-91v105h91v271h274q184 0 297 -98t113 -259zM390 575h-100v-133h135v-105h-135v-199h100q104 0 168 59t64 159t-64 159.5t-168 59.5z" />
    <glyph glyph-name="dcroat" unicode="&#x111;" horiz-adv-x="688" 
d="M438 743h159v-72h71v-92h-71v-342q0 -112 -78 -184.5t-199 -72.5q-125 0 -206.5 78t-81.5 198t74 198.5t187 78.5q86 0 145 -56v102h-169v92h169v72zM191 256q0 -59 36 -97.5t91 -38.5t90.5 38.5t36.5 97.5q0 60 -35.5 98.5t-91.5 38.5t-91.5 -38.5t-35.5 -98.5z" />
    <glyph glyph-name="Emacron" unicode="&#x112;" horiz-adv-x="629" 
d="M589 0h-512v713h502v-143h-330v-143h290v-124h-290v-160h340v-143zM154 875h342v-94h-342v94z" />
    <glyph glyph-name="emacron" unicode="&#x113;" horiz-adv-x="636" 
d="M326 533q121 0 197 -76.5t76 -198.5q0 -40 -5 -63h-389q14 -44 45 -69.5t75 -25.5q38 0 68.5 16.5t40.5 42.5h128v-58q-24 -55 -91 -88t-149 -33q-127 0 -206 78t-79 202q0 121 80.5 197t208.5 76zM317 413q-49 0 -81 -34.5t-39 -91.5h242q-1 54 -35 90t-87 36zM149 675
h341v-94h-341v94z" />
    <glyph glyph-name="Ebreve" unicode="&#x114;" horiz-adv-x="629" 
d="M589 0h-512v713h502v-143h-330v-143h290v-124h-290v-160h340v-143zM329 760q-57 0 -99 28t-53 73v52h94q0 -32 16 -51.5t42 -20.5q26 0 42.5 20t16.5 52h93l1 -52q-10 -46 -52 -73.5t-101 -27.5z" />
    <glyph glyph-name="ebreve" unicode="&#x115;" horiz-adv-x="636" 
d="M326 533q121 0 197 -76.5t76 -198.5q0 -40 -5 -63h-389q14 -44 45 -69.5t75 -25.5q38 0 68.5 16.5t40.5 42.5h128v-58q-24 -55 -91 -88t-149 -33q-127 0 -206 78t-79 202q0 121 80.5 197t208.5 76zM317 413q-49 0 -81 -34.5t-39 -91.5h242q-1 54 -35 90t-87 36zM319 560
q-56 0 -97.5 33t-54.5 88v52h94q0 -41 16 -66t42 -25t42.5 25t16.5 66h94v-52q-13 -55 -54.5 -88t-98.5 -33z" />
    <glyph glyph-name="Edotaccent" unicode="&#x116;" horiz-adv-x="629" 
d="M589 0h-512v713h502v-143h-330v-143h290v-124h-290v-160h340v-143zM240 842q0 37 25 59t66 22t66 -22t25 -59t-25 -59.5t-66 -22.5t-66 22.5t-25 59.5z" />
    <glyph glyph-name="edotaccent" unicode="&#x117;" horiz-adv-x="636" 
d="M326 533q121 0 197 -76.5t76 -198.5q0 -40 -5 -63h-389q14 -44 45 -69.5t75 -25.5q38 0 68.5 16.5t40.5 42.5h128v-58q-24 -55 -91 -88t-149 -33q-127 0 -206 78t-79 202q0 121 80.5 197t208.5 76zM317 413q-49 0 -81 -34.5t-39 -91.5h242q-1 54 -35 90t-87 36zM228 648
q0 39 26 63.5t65 24.5q41 0 66.5 -24.5t25.5 -63.5t-25.5 -63.5t-66.5 -24.5q-39 0 -65 24.5t-26 63.5z" />
    <glyph glyph-name="Eogonek" unicode="&#x118;" horiz-adv-x="629" 
d="M589 0h-38q-107 -33 -107 -94q0 -38 40 -69t105 -43v-64h-107q-57 18 -92.5 61t-35.5 94q0 78 97 115h-374v713h502v-143h-330v-143h290v-124h-290v-160h340v-143z" />
    <glyph glyph-name="eogonek" unicode="&#x119;" horiz-adv-x="636" 
d="M326 533q121 0 197 -76.5t76 -198.5q0 -40 -5 -63h-389q14 -44 45 -69.5t75 -25.5q38 0 68.5 16.5t40.5 42.5h128v-58q-19 -41 -62.5 -71t-102.5 -42q-73 -31 -73 -82q0 -38 40 -69t105 -43v-64h-107q-57 18 -92.5 61t-35.5 94q0 60 59 97q-115 9 -185.5 85t-70.5 193
q0 121 80.5 197t208.5 76zM317 413q-49 0 -81 -34.5t-39 -91.5h242q-1 54 -35 90t-87 36z" />
    <glyph glyph-name="Ecaron" unicode="&#x11a;" horiz-adv-x="629" 
d="M589 0h-512v713h502v-143h-330v-143h290v-124h-290v-160h340v-143zM250 770l-84 114v39h86l76 -94l78 94h85v-39l-84 -114h-157z" />
    <glyph glyph-name="ecaron" unicode="&#x11b;" horiz-adv-x="636" 
d="M326 533q121 0 197 -76.5t76 -198.5q0 -40 -5 -63h-389q14 -44 45 -69.5t75 -25.5q38 0 68.5 16.5t40.5 42.5h128v-58q-24 -55 -91 -88t-149 -33q-127 0 -206 78t-79 202q0 121 80.5 197t208.5 76zM317 413q-49 0 -81 -34.5t-39 -91.5h242q-1 54 -35 90t-87 36zM241 570
l-84 134v39h85l77 -113l77 113h86v-39l-85 -134h-156z" />
    <glyph glyph-name="Gbreve" unicode="&#x11e;" horiz-adv-x="856" 
d="M643 296h-214v110h384q17 -187 -89.5 -309t-287.5 -122q-172 0 -284 107.5t-112 273.5t112 274t284 108q101 0 192.5 -45t136.5 -117v-92h-145q-19 44 -70 72.5t-114 28.5q-96 1 -156.5 -63t-60.5 -166q0 -101 61 -164t156 -64q87 -1 145 46t62 122zM439 760
q-57 0 -99 28t-53 73v52h94q0 -32 16 -51.5t42 -20.5q26 0 42.5 20t16.5 52h93l1 -52q-10 -46 -52 -73.5t-101 -27.5z" />
    <glyph glyph-name="gbreve" unicode="&#x11f;" horiz-adv-x="662" 
d="M323 533q121 0 200 -77.5t79 -196.5v-265q0 -109 -76.5 -176.5t-199.5 -67.5q-100 0 -175.5 43t-96.5 112v65h141q8 -44 42.5 -72t82.5 -28q54 0 88.5 36.5t34.5 93.5v49q-63 -56 -148 -56q-111 0 -184.5 75.5t-73.5 190.5q0 119 81 196.5t205 77.5zM322 393
q-56 0 -91 -38t-35 -99q0 -58 35.5 -95.5t91.5 -37.5t91 36.5t35 96.5q0 61 -35 99t-92 38zM318 560q-56 0 -97.5 33t-54.5 88v52h94q0 -41 16 -66t42 -25t42 25t16 66h94v-52q-12 -55 -54 -88t-98 -33z" />
    <glyph glyph-name="Gdotaccent" unicode="&#x120;" horiz-adv-x="856" 
d="M643 296h-214v110h384q17 -187 -89.5 -309t-287.5 -122q-172 0 -284 107.5t-112 273.5t112 274t284 108q101 0 192.5 -45t136.5 -117v-92h-145q-19 44 -70 72.5t-114 28.5q-96 1 -156.5 -63t-60.5 -166q0 -101 61 -164t156 -64q87 -1 145 46t62 122zM350 842q0 37 25 59
t66 22t66 -22t25 -59t-25 -59.5t-66 -22.5t-66 22.5t-25 59.5z" />
    <glyph glyph-name="gdotaccent" unicode="&#x121;" horiz-adv-x="662" 
d="M323 533q121 0 200 -77.5t79 -196.5v-265q0 -109 -76.5 -176.5t-199.5 -67.5q-100 0 -175.5 43t-96.5 112v65h141q8 -44 42.5 -72t82.5 -28q54 0 88.5 36.5t34.5 93.5v49q-63 -56 -148 -56q-111 0 -184.5 75.5t-73.5 190.5q0 119 81 196.5t205 77.5zM322 393
q-56 0 -91 -38t-35 -99q0 -58 35.5 -95.5t91.5 -37.5t91 36.5t35 96.5q0 61 -35 99t-92 38zM227 648q0 39 25.5 63.5t65.5 24.5t65.5 -24.5t25.5 -63.5t-25.5 -63.5t-65.5 -24.5t-65.5 24.5t-25.5 63.5z" />
    <glyph glyph-name="Gcommaaccent" unicode="&#x122;" horiz-adv-x="856" 
d="M643 296h-214v110h384q17 -187 -89.5 -309t-287.5 -122q-172 0 -284 107.5t-112 273.5t112 274t284 108q101 0 192.5 -45t136.5 -117v-92h-145q-19 44 -70 72.5t-114 28.5q-96 1 -156.5 -63t-60.5 -166q0 -101 61 -164t156 -64q87 -1 145 46t62 122zM366 -123
q0 30 19.5 49.5t50.5 19.5q35 0 58.5 -26.5t23.5 -66.5q0 -53 -25.5 -100.5t-65.5 -66.5h-52v36q23 7 38 30t15 50q-27 0 -44.5 21t-17.5 54z" />
    <glyph glyph-name="gcommaaccent" unicode="&#x123;" horiz-adv-x="662" 
d="M323 533q121 0 200 -77.5t79 -196.5v-265q0 -109 -76.5 -176.5t-199.5 -67.5q-100 0 -175.5 43t-96.5 112v65h141q8 -44 42.5 -72t82.5 -28q54 0 88.5 36.5t34.5 93.5v49q-63 -56 -148 -56q-111 0 -184.5 75.5t-73.5 190.5q0 119 81 196.5t205 77.5zM322 393
q-56 0 -91 -38t-35 -99q0 -58 35.5 -95.5t91.5 -37.5t91 36.5t35 96.5q0 61 -35 99t-92 38zM392 629q0 -30 -20 -49.5t-51 -19.5q-35 0 -58 26t-23 67q0 53 25.5 100t64.5 67h52v-36q-23 -7 -38 -30t-15 -50q27 0 44.5 -21t18.5 -54z" />
    <glyph glyph-name="Itilde" unicode="&#x128;" horiz-adv-x="326" 
d="M77 0v713h179v-713h-179zM65 937q41 0 91.5 -32t73.5 -32q19 0 33.5 10t18.5 27h74v-41q-14 -43 -49.5 -66.5t-79.5 -23.5q-45 0 -95 32t-73 32q-17 0 -29.5 -10t-15.5 -27h-74v40q14 44 47.5 67.5t77.5 23.5z" />
    <glyph glyph-name="itilde" unicode="&#x129;" horiz-adv-x="293" 
d="M67 0v513h159v-513h-159zM49 735q41 0 91.5 -32t73.5 -32q19 0 33.5 10t18.5 27h74v-41q-14 -43 -49.5 -66.5t-79.5 -23.5q-45 0 -95 32t-73 32q-17 0 -29.5 -10t-15.5 -27h-74v40q14 44 47.5 67.5t77.5 23.5z" />
    <glyph glyph-name="Imacron" unicode="&#x12a;" horiz-adv-x="326" 
d="M77 0v713h179v-713h-179zM-8 875h342v-94h-342v94z" />
    <glyph glyph-name="imacron" unicode="&#x12b;" horiz-adv-x="293" 
d="M67 0v513h159v-513h-159zM-24 675h341v-94h-341v94z" />
    <glyph glyph-name="Iogonek" unicode="&#x12e;" horiz-adv-x="326" 
d="M77 0v713h179v-713h-14q-107 -33 -107 -94q0 -38 40.5 -69t105.5 -43v-64h-108q-57 18 -92.5 61t-35.5 94q0 78 97 115h-65z" />
    <glyph glyph-name="iogonek" unicode="&#x12f;" horiz-adv-x="293" 
d="M70 0v513h159v-513h-13q-107 -33 -107 -94q0 -38 40 -69t105 -43v-64h-108q-56 18 -92 61t-36 94q0 78 97 115h-45zM58 666q0 38 25.5 63t65.5 25t66 -25t26 -63t-26 -63t-66 -25t-65.5 25t-25.5 63z" />
    <glyph glyph-name="Idotaccent" unicode="&#x130;" horiz-adv-x="327" 
d="M76 0v713h178v-713h-178zM72 842q1 37 25.5 59t65.5 22t66.5 -22t25.5 -59t-25.5 -59.5t-66.5 -22.5t-66 22.5t-25 59.5z" />
    <glyph glyph-name="dotlessi" unicode="&#x131;" horiz-adv-x="293" 
d="M67 0v513h159v-513h-159z" />
    <glyph glyph-name="IJ" unicode="&#x132;" horiz-adv-x="803" 
d="M77 0v713h179v-713h-179zM562 713h179v-487q0 -109 -69 -177.5t-175 -68.5q-79 0 -144 20v133q47 -13 94 -13q51 -1 83 36t32 96v461z" />
    <glyph glyph-name="ij" unicode="&#x133;" horiz-adv-x="597" 
d="M69 0v513h159v-513h-159zM369 513h160v-561q0 -83 -48.5 -134t-127.5 -51q-63 0 -114 17v130q22 -7 60 -7q31 0 50.5 19.5t19.5 50.5v536zM57 666q0 38 25.5 63t65.5 25t66 -25t26 -63t-26 -63t-66 -25t-65.5 25t-25.5 63zM357 666q0 38 26 63t66 25t65.5 -25t25.5 -63
t-25.5 -63t-65.5 -25t-66 25t-26 63z" />
    <glyph glyph-name="Kcommaaccent" unicode="&#x136;" horiz-adv-x="673" 
d="M236 431l255 282h147v-85l-239 -252l249 -292v-84h-154l-258 317v-317h-179v713h179v-282zM272 -123q0 30 19.5 49.5t50.5 19.5q35 0 58.5 -26.5t23.5 -66.5q0 -53 -25.5 -100t-64.5 -67h-53v36q23 7 38 30t15 50q-27 0 -44.5 21t-17.5 54z" />
    <glyph glyph-name="kcommaaccent" unicode="&#x137;" horiz-adv-x="579" 
d="M226 320l185 193h138v-78l-172 -169l182 -194v-72h-144l-189 212v-212h-159v743h159v-423zM244 -123q0 30 19.5 49.5t50.5 19.5q35 0 58.5 -26.5t23.5 -66.5q0 -53 -25.5 -100.5t-65.5 -66.5h-52v36q23 7 38 30t15 50q-27 0 -44.5 21t-17.5 54z" />
    <glyph glyph-name="Lacute" unicode="&#x139;" horiz-adv-x="556" 
d="M77 713h179v-560h290v-153h-469v713zM119 770v39l97 114h105v-46l-116 -107h-86z" />
    <glyph glyph-name="lacute" unicode="&#x13a;" horiz-adv-x="295" 
d="M67 0v743h159v-743h-159zM94 785v39l97 114h105v-47l-116 -106h-86z" />
    <glyph glyph-name="Lcommaaccent" unicode="&#x13b;" horiz-adv-x="547" 
d="M72 713h179v-560h290v-153h-469v713zM248 -123q0 30 20 49.5t50 19.5q35 0 58.5 -26.5t23.5 -66.5q0 -53 -25.5 -100t-64.5 -67h-52v36q23 8 38 30.5t15 49.5q-28 0 -45.5 21t-17.5 54z" />
    <glyph glyph-name="lcommaaccent" unicode="&#x13c;" horiz-adv-x="322" 
d="M82 0v743h159v-743h-159zM88 -116q0 29 19.5 48.5t49.5 19.5q36 0 59.5 -26t23.5 -66q0 -53 -25.5 -100.5t-65.5 -66.5l-52 -1v36q23 8 38 30.5t15 49.5q-28 0 -45 21.5t-17 54.5z" />
    <glyph glyph-name="Lcaron" unicode="&#x13d;" horiz-adv-x="556" 
d="M77 713h179v-560h290v-153h-469v713zM313 655q0 30 20 49t51 19q36 0 59 -26t23 -67q0 -53 -25.5 -100t-65.5 -67h-52v36q23 8 38 30.5t15 49.5q-27 0 -45 21.5t-18 54.5z" />
    <glyph glyph-name="lcaron" unicode="&#x13e;" horiz-adv-x="402" 
d="M67 0v743h159v-743h-159zM270 684q0 31 19.5 50t50.5 19q36 0 59 -26t23 -67q0 -53 -25.5 -100.5t-64.5 -66.5h-53v36q23 8 38 30.5t15 49.5q-27 0 -44.5 21.5t-17.5 53.5z" />
    <glyph glyph-name="Lslash" unicode="&#x141;" horiz-adv-x="602" 
d="M524 630h46v-105l-268 -187v-211h290v-127h-462v218l-84 -58h-46v105l130 90v358h172v-238z" />
    <glyph glyph-name="lslash" unicode="&#x142;" horiz-adv-x="502" 
d="M456 646h46v-105l-172 -127v-414h-159v296l-125 -92h-46v105l171 126v308h159v-190z" />
    <glyph glyph-name="Nacute" unicode="&#x143;" horiz-adv-x="814" 
d="M737 713v-713h-186l-308 496v-496h-166v713h187l308 -497v497h165zM355 770v39l97 114h105v-46l-116 -107h-86z" />
    <glyph glyph-name="nacute" unicode="&#x144;" 
d="M379 533q85 0 140 -59.5t55 -151.5v-322h-159v284q0 48 -26 78.5t-68 30.5q-41 0 -68 -30t-27 -76v-287h-159v513h154v-70q61 90 158 90zM269 570v39l96 134h105v-46l-116 -127h-85z" />
    <glyph glyph-name="Ncommaaccent" unicode="&#x145;" horiz-adv-x="814" 
d="M737 713v-713h-186l-308 496v-496h-166v713h187l308 -497v497h165zM334 -123q0 30 19.5 49.5t49.5 19.5q36 0 59.5 -26.5t23.5 -66.5q0 -53 -25.5 -100.5t-65.5 -66.5h-52v36q23 7 38 30t15 50q-28 0 -45 21t-17 54z" />
    <glyph glyph-name="ncommaaccent" unicode="&#x146;" 
d="M379 533q85 0 140 -59.5t55 -151.5v-322h-159v284q0 48 -26 78.5t-68 30.5q-41 0 -68 -30t-27 -76v-287h-159v513h154v-70q61 90 158 90zM247 -123q0 30 19.5 49.5t50.5 19.5q36 0 59 -26t23 -67q0 -53 -25.5 -100t-64.5 -67h-53v36q23 7 38 30t15 50q-27 0 -44.5 21
t-17.5 54z" />
    <glyph glyph-name="Ncaron" unicode="&#x147;" horiz-adv-x="814" 
d="M737 713v-713h-186l-308 496v-496h-166v713h187l308 -497v497h165zM329 770l-84 114v39h86l76 -94l78 94h85v-39l-84 -114h-157z" />
    <glyph glyph-name="ncaron" unicode="&#x148;" 
d="M379 533q85 0 140 -59.5t55 -151.5v-322h-159v284q0 48 -26 78.5t-68 30.5q-41 0 -68 -30t-27 -76v-287h-159v513h154v-70q61 90 158 90zM243 570l-84 134v39h85l77 -113l77 113h85v-39l-84 -134h-156z" />
    <glyph glyph-name="Omacron" unicode="&#x14c;" horiz-adv-x="872" 
d="M40 356q0 170 110 276t286 106t286 -106t110 -276t-110 -275.5t-286 -105.5t-286 105.5t-110 275.5zM219 356q0 -101 60.5 -164.5t156.5 -63.5t156.5 63.5t60.5 164.5t-60.5 165t-156.5 64t-156.5 -64t-60.5 -165zM265 875h342v-94h-342v94z" />
    <glyph glyph-name="omacron" unicode="&#x14d;" horiz-adv-x="646" 
d="M609 256q0 -122 -79.5 -199t-206.5 -77t-206.5 77t-79.5 199q0 123 79.5 200t206.5 77t206.5 -77t79.5 -200zM450 256q0 61 -35.5 99t-91.5 38t-91.5 -38t-35.5 -99q0 -60 35.5 -98t91.5 -38t91.5 38t35.5 98zM152 675h342v-94h-342v94z" />
    <glyph glyph-name="Obreve" unicode="&#x14e;" horiz-adv-x="872" 
d="M40 356q0 170 110 276t286 106t286 -106t110 -276t-110 -275.5t-286 -105.5t-286 105.5t-110 275.5zM219 356q0 -101 60.5 -164.5t156.5 -63.5t156.5 63.5t60.5 164.5t-60.5 165t-156.5 64t-156.5 -64t-60.5 -165zM436 760q-58 0 -99.5 28t-52.5 73v52h93
q0 -32 16.5 -51.5t42.5 -20.5q26 0 42.5 20t16.5 52h92l1 -52q-10 -46 -52 -73.5t-100 -27.5z" />
    <glyph glyph-name="obreve" unicode="&#x14f;" horiz-adv-x="646" 
d="M609 256q0 -122 -79.5 -199t-206.5 -77t-206.5 77t-79.5 199q0 123 79.5 200t206.5 77t206.5 -77t79.5 -200zM450 256q0 61 -35.5 99t-91.5 38t-91.5 -38t-35.5 -99q0 -60 35.5 -98t91.5 -38t91.5 38t35.5 98zM323 560q-56 0 -98 33t-54 88v52h94q0 -41 16 -66t42 -25
t42 25t16 66h94v-52q-12 -55 -54 -88t-98 -33z" />
    <glyph glyph-name="Ohungarumlaut" unicode="&#x150;" horiz-adv-x="872" 
d="M40 356q0 170 110 276t286 106t286 -106t110 -276t-110 -275.5t-286 -105.5t-286 105.5t-110 275.5zM219 356q0 -101 60.5 -164.5t156.5 -63.5t156.5 63.5t60.5 164.5t-60.5 165t-156.5 64t-156.5 -64t-60.5 -165zM281 770v39l80 127h105v-46l-100 -120h-85zM466 770v39
l93 127h105v-46l-112 -120h-86z" />
    <glyph glyph-name="ohungarumlaut" unicode="&#x151;" horiz-adv-x="646" 
d="M609 256q0 -122 -79.5 -199t-206.5 -77t-206.5 77t-79.5 199q0 123 79.5 200t206.5 77t206.5 -77t79.5 -200zM450 256q0 61 -35.5 99t-91.5 38t-91.5 -38t-35.5 -99q0 -60 35.5 -98t91.5 -38t91.5 38t35.5 98zM168 570v39l80 141h105v-46l-100 -134h-85zM353 570v39
l94 141h104v-46l-113 -134h-85z" />
    <glyph glyph-name="OE" unicode="&#x152;" horiz-adv-x="1046" 
d="M410 738q61 0 122 -25h464v-143h-292v-146h252v-125h-252v-156h302v-143h-473q-63 -25 -123 -25q-169 0 -269.5 105.5t-100.5 275.5t100.5 276t269.5 106zM428 585q-91 0 -150 -64.5t-59 -164.5q0 -98 58 -163t146 -65q61 0 107 31v394q-44 32 -102 32z" />
    <glyph glyph-name="oe" unicode="&#x153;" horiz-adv-x="1049" 
d="M1008 208h-393q12 -48 46 -76.5t80 -28.5q38 0 69 17.5t41 44.5h124v-58q-25 -56 -89 -91.5t-140 -35.5q-74 0 -131.5 35.5t-88.5 98.5q-30 -63 -86.5 -98.5t-129.5 -35.5q-121 0 -197 77t-76 199t76 199.5t197 77.5q72 0 128.5 -35.5t87.5 -98.5q32 63 91 98.5t135 35.5
q115 0 187.5 -75.5t72.5 -194.5q0 -31 -4 -55zM450 256q0 64 -36 107t-91 43t-91 -43t-36 -107q0 -63 36 -106t91 -43t90.5 42.5t36.5 106.5zM735 413q-50 0 -82.5 -37.5t-37.5 -98.5h241q2 56 -32.5 96t-88.5 40z" />
    <glyph glyph-name="Racute" unicode="&#x154;" horiz-adv-x="755" 
d="M427 713q125 0 204 -67.5t79 -174.5q0 -69 -40 -124t-106 -78l126 -197v-72h-152l-144 241h-138v-241h-179v713h350zM256 580v-216h140q59 0 97.5 29.5t38.5 77.5q0 50 -38.5 79.5t-97.5 29.5h-140zM299 770v39l98 114h104v-46l-116 -107h-86z" />
    <glyph glyph-name="racute" unicode="&#x155;" horiz-adv-x="480" 
d="M357 532q69 0 103 -39v-144h-78q-7 19 -26.5 31.5t-42.5 12.5q-38 0 -62.5 -34t-24.5 -88v-271h-159v513h153v-66q22 40 58 62.5t79 22.5zM219 570v39l97 134h105v-46l-116 -127h-86z" />
    <glyph glyph-name="Rcommaaccent" unicode="&#x156;" horiz-adv-x="755" 
d="M427 713q125 0 204 -67.5t79 -174.5q0 -69 -40 -124t-106 -78l126 -197v-72h-152l-144 241h-138v-241h-179v713h350zM256 580v-216h140q59 0 97.5 29.5t38.5 77.5q0 50 -38.5 79.5t-97.5 29.5h-140zM308 -123q0 30 19.5 49.5t50.5 19.5q35 0 58.5 -26.5t23.5 -66.5
q0 -53 -25.5 -100t-64.5 -67h-53v36q23 7 38 30t15 50q-27 0 -44.5 21t-17.5 54z" />
    <glyph glyph-name="rcommaaccent" unicode="&#x157;" horiz-adv-x="481" 
d="M358 532q69 0 103 -39v-144h-78q-7 19 -26.5 31.5t-42.5 12.5q-38 0 -62.5 -34t-24.5 -88v-271h-159v513h153v-66q22 40 58 62.5t79 22.5zM77 -123q0 30 20 49.5t50 19.5q36 0 59.5 -26.5t23.5 -66.5q0 -53 -25.5 -100.5t-65.5 -66.5h-52v36q23 7 38 30t15 50
q-28 0 -45.5 21t-17.5 54z" />
    <glyph glyph-name="Rcaron" unicode="&#x158;" horiz-adv-x="755" 
d="M427 713q125 0 204 -67.5t79 -174.5q0 -69 -40 -124t-106 -78l126 -197v-72h-152l-144 241h-138v-241h-179v713h350zM256 580v-216h140q59 0 97.5 29.5t38.5 77.5q0 50 -38.5 79.5t-97.5 29.5h-140zM274 770l-85 114v39h86l77 -94l76 94h86v-39l-84 -114h-156z" />
    <glyph glyph-name="rcaron" unicode="&#x159;" horiz-adv-x="480" 
d="M357 532q69 0 103 -39v-144h-78q-7 19 -26.5 31.5t-42.5 12.5q-38 0 -62.5 -34t-24.5 -88v-271h-159v513h153v-66q22 40 58 62.5t79 22.5zM194 570l-85 134v39h86l77 -113l76 113h86v-39l-84 -134h-156z" />
    <glyph glyph-name="Sacute" unicode="&#x15a;" horiz-adv-x="688" 
d="M338 -25q-104 0 -184.5 43.5t-105.5 112.5v78h144q5 -44 48 -72.5t104 -28.5q63 -1 104 26t41 68q0 31 -25 48.5t-65 25t-88.5 13t-97 17t-88.5 31t-65 61.5t-25 103q0 105 82 171t212 66q108 0 189.5 -40t103.5 -103v-78h-143q-4 39 -45 63.5t-100 24.5t-97 -24.5
t-38 -62.5q0 -35 33.5 -53.5t84 -23t109 -15t109 -27t84 -61t33.5 -114.5q1 -110 -86.5 -179.5t-227.5 -69.5zM282 770v39l97 114h104v-46l-116 -107h-85z" />
    <glyph glyph-name="sacute" unicode="&#x15b;" horiz-adv-x="537" 
d="M264 -20q-79 0 -142.5 32t-83.5 82v65h130q5 -31 33.5 -50t69.5 -19q39 0 63.5 16.5t24.5 42.5q0 22 -24.5 34t-62 14t-80.5 10t-80.5 20.5t-62 46.5t-24.5 87q0 76 65.5 124t168.5 48q83 0 146 -28t80 -72v-59h-129q-2 22 -28.5 35.5t-65.5 13.5q-38 0 -61 -14t-23 -36
q0 -20 24.5 -31t62 -14t80.5 -11.5t80.5 -21t62 -45.5t24.5 -84q0 -82 -69 -134t-179 -52zM204 570v39l97 134h105v-46l-116 -127h-86z" />
    <glyph glyph-name="Scircumflex" unicode="&#x15c;" horiz-adv-x="688" 
d="M338 -25q-104 0 -184.5 43.5t-105.5 112.5v78h144q5 -44 48 -72.5t104 -28.5q63 -1 104 26t41 68q0 31 -25 48.5t-65 25t-88.5 13t-97 17t-88.5 31t-65 61.5t-25 103q0 105 82 171t212 66q108 0 189.5 -40t103.5 -103v-78h-143q-4 39 -45 63.5t-100 24.5t-97 -24.5
t-38 -62.5q0 -35 33.5 -53.5t84 -23t109 -15t109 -27t84 -61t33.5 -114.5q1 -110 -86.5 -179.5t-227.5 -69.5zM172 816l84 114h156l84 -114v-39h-85l-77 94l-77 -94h-85v39z" />
    <glyph glyph-name="scircumflex" unicode="&#x15d;" horiz-adv-x="537" 
d="M264 -20q-79 0 -142.5 32t-83.5 82v65h130q5 -31 33.5 -50t69.5 -19q39 0 63.5 16.5t24.5 42.5q0 22 -24.5 34t-62 14t-80.5 10t-80.5 20.5t-62 46.5t-24.5 87q0 76 65.5 124t168.5 48q83 0 146 -28t80 -72v-59h-129q-2 22 -28.5 35.5t-65.5 13.5q-38 0 -61 -14t-23 -36
q0 -20 24.5 -31t62 -14t80.5 -11.5t80.5 -21t62 -45.5t24.5 -84q0 -82 -69 -134t-179 -52zM94 616l85 134h156l84 -134v-39h-86l-76 113l-77 -113h-86v39z" />
    <glyph glyph-name="Scedilla" unicode="&#x15e;" horiz-adv-x="688" 
d="M652 224q1 -104 -78.5 -172t-208.5 -76l-4 -30q47 0 75.5 -26.5t28.5 -70.5t-34 -71.5t-90 -27.5q-40 0 -70 19.5t-40 51.5v39h42q4 -22 20.5 -35t39.5 -13q21 0 33.5 12t12.5 32q0 22 -15.5 35t-41.5 13h-50l12 75q-86 11 -150.5 52t-85.5 100v78h144q5 -44 48 -72.5
t104 -28.5q63 -1 104 26t41 68q0 31 -25 48.5t-65 25t-88.5 13t-97 17t-88.5 31t-65 61.5t-25 103q0 105 82 171t212 66q108 0 189.5 -40t103.5 -103v-78h-143q-4 39 -45 63.5t-100 24.5t-97 -24.5t-38 -62.5q0 -35 33.5 -53.5t84 -23t109 -15t109 -27t84 -61t33.5 -114.5z
" />
    <glyph glyph-name="scedilla" unicode="&#x15f;" horiz-adv-x="537" 
d="M512 166q0 -75 -58.5 -125.5t-154.5 -58.5l-5 -36q47 0 75.5 -27t28.5 -70q0 -44 -34.5 -71.5t-89.5 -27.5q-40 0 -70 19.5t-40 51.5v39h41q5 -22 21.5 -35t39.5 -13q21 0 33.5 12t12.5 32q0 22 -15.5 35t-41.5 13h-51l13 79q-65 9 -113.5 39t-65.5 72v65h130
q5 -31 33.5 -50t69.5 -19q39 0 63.5 16.5t24.5 42.5q0 22 -24.5 34t-62 14t-80.5 10t-80.5 20.5t-62 46.5t-24.5 87q0 76 65.5 124t168.5 48q83 0 146 -28t80 -72v-59h-129q-2 22 -28.5 35.5t-65.5 13.5q-38 0 -61 -14t-23 -36q0 -20 24.5 -31t62 -14t80.5 -11.5t80.5 -21
t62 -45.5t24.5 -84z" />
    <glyph glyph-name="Scaron" unicode="&#x160;" horiz-adv-x="688" 
d="M338 -25q-104 0 -184.5 43.5t-105.5 112.5v78h144q5 -44 48 -72.5t104 -28.5q63 -1 104 26t41 68q0 31 -25 48.5t-65 25t-88.5 13t-97 17t-88.5 31t-65 61.5t-25 103q0 105 82 171t212 66q108 0 189.5 -40t103.5 -103v-78h-143q-4 39 -45 63.5t-100 24.5t-97 -24.5
t-38 -62.5q0 -35 33.5 -53.5t84 -23t109 -15t109 -27t84 -61t33.5 -114.5q1 -110 -86.5 -179.5t-227.5 -69.5zM255 770l-84 114v39h86l76 -94l78 94h85v-39l-84 -114h-157z" />
    <glyph glyph-name="scaron" unicode="&#x161;" horiz-adv-x="537" 
d="M264 -20q-79 0 -142.5 32t-83.5 82v65h130q5 -31 33.5 -50t69.5 -19q39 0 63.5 16.5t24.5 42.5q0 22 -24.5 34t-62 14t-80.5 10t-80.5 20.5t-62 46.5t-24.5 87q0 76 65.5 124t168.5 48q83 0 146 -28t80 -72v-59h-129q-2 22 -28.5 35.5t-65.5 13.5q-38 0 -61 -14t-23 -36
q0 -20 24.5 -31t62 -14t80.5 -11.5t80.5 -21t62 -45.5t24.5 -84q0 -82 -69 -134t-179 -52zM179 570l-85 134v39h86l77 -113l76 113h86v-39l-84 -134h-156z" />
    <glyph glyph-name="Tcommaaccent" unicode="&#x162;" horiz-adv-x="611" 
d="M5 713h601v-153h-211v-560h-179v560h-211v153zM229 -123q0 30 19.5 49.5t50.5 19.5q35 0 58.5 -26.5t23.5 -66.5q0 -53 -25.5 -100.5t-65.5 -66.5h-52v36q23 7 38 30t15 50q-27 0 -44.5 21t-17.5 54z" />
    <glyph glyph-name="tcommaaccent" unicode="&#x163;" horiz-adv-x="392" 
d="M20 393v120h71v110h159v-110h114v-120h-114v-203q0 -32 17.5 -51t46.5 -19q31 0 53 7v-131q-48 -16 -107 -16q-76 0 -122.5 52.5t-46.5 138.5v222h-71zM156 -123q0 30 19.5 49.5t50.5 19.5q35 0 58.5 -26.5t23.5 -66.5q0 -53 -25.5 -100.5t-65.5 -66.5h-52v36q23 7 38 30
t15 50q-27 0 -44.5 21t-17.5 54z" />
    <glyph glyph-name="Tcaron" unicode="&#x164;" horiz-adv-x="611" 
d="M5 713h601v-153h-211v-560h-179v560h-211v153zM224 770l-84 114v39h86l76 -94l78 94h85v-39l-84 -114h-157z" />
    <glyph glyph-name="tcaron" unicode="&#x165;" horiz-adv-x="403" 
d="M20 393v120h71v110h159v-110h114v-120h-114v-203q0 -32 17.5 -51t46.5 -19q31 0 53 7v-131q-48 -16 -107 -16q-76 0 -122.5 52.5t-46.5 138.5v222h-71zM281 734q0 30 20 49.5t50 19.5q36 0 59 -26t23 -67q0 -53 -26 -100t-68 -67h-52v36q25 7 40.5 30t15.5 50
q-27 0 -44.5 21t-17.5 54z" />
    <glyph glyph-name="Utilde" unicode="&#x168;" horiz-adv-x="780" 
d="M535 713h178v-417q0 -142 -90 -231.5t-233 -89.5t-233 89.5t-90 231.5v417h179v-411q0 -70 39 -121.5t105 -52.5q65 0 105 49t40 125v411zM292 937q41 0 91.5 -32t73.5 -32q19 0 33.5 10t18.5 27h74v-41q-14 -43 -49.5 -66.5t-79.5 -23.5q-45 0 -95 32t-73 32
q-17 0 -29.5 -10t-15.5 -27h-74v40q14 44 47.5 67.5t77.5 23.5z" />
    <glyph glyph-name="utilde" unicode="&#x169;" 
d="M252 -20q-85 0 -140 59.5t-55 151.5v322h159v-284q0 -48 26 -78.5t68 -30.5q41 0 68 30t27 76v287h159v-513h-154v70q-61 -90 -158 -90zM218 735q41 0 91.5 -32t73.5 -32q19 0 33.5 10t18.5 27h74v-41q-14 -43 -49.5 -66.5t-79.5 -23.5q-45 0 -95 32t-73 32
q-17 0 -29.5 -10t-15.5 -27h-74v40q14 44 47.5 67.5t77.5 23.5z" />
    <glyph glyph-name="Umacron" unicode="&#x16a;" horiz-adv-x="780" 
d="M535 713h178v-417q0 -142 -90 -231.5t-233 -89.5t-233 89.5t-90 231.5v417h179v-411q0 -70 39 -121.5t105 -52.5q65 0 105 49t40 125v411zM219 865h342v-95h-342v95z" />
    <glyph glyph-name="umacron" unicode="&#x16b;" 
d="M252 -20q-85 0 -140 59.5t-55 151.5v322h159v-284q0 -48 26 -78.5t68 -30.5q41 0 68 30t27 76v287h159v-513h-154v70q-61 -90 -158 -90zM140 675h342v-94h-342v94z" />
    <glyph glyph-name="Ubreve" unicode="&#x16c;" horiz-adv-x="780" 
d="M535 713h178v-417q0 -142 -90 -231.5t-233 -89.5t-233 89.5t-90 231.5v417h179v-411q0 -70 39 -121.5t105 -52.5q65 0 105 49t40 125v411zM390 760q-58 0 -99.5 28t-52.5 73v52h94q0 -32 16 -51.5t42 -20.5q26 0 42 20t16 52h94v-52q-10 -46 -51.5 -73.5t-100.5 -27.5z
" />
    <glyph glyph-name="ubreve" unicode="&#x16d;" 
d="M252 -20q-85 0 -140 59.5t-55 151.5v322h159v-284q0 -48 26 -78.5t68 -30.5q41 0 68 30t27 76v287h159v-513h-154v70q-61 -90 -158 -90zM311 560q-56 0 -98 33t-54 88v52h94q0 -41 16 -66t42 -25t42 25t16 66h94v-52q-12 -55 -54 -88t-98 -33z" />
    <glyph glyph-name="Uring" unicode="&#x16e;" horiz-adv-x="780" 
d="M535 713h178v-417q0 -142 -90 -231.5t-233 -89.5t-233 89.5t-90 231.5v417h179v-411q0 -70 39 -121.5t105 -52.5q65 0 105 49t40 125v411zM245 880q0 55 40 89t105 34t105 -34t40 -89q0 -54 -40 -88t-105 -34q-64 0 -104.5 34t-40.5 88zM333 880q0 -20 16 -33.5t41 -13.5
t41 13.5t16 33.5q0 21 -16 34t-41 13t-41 -13t-16 -34z" />
    <glyph glyph-name="uring" unicode="&#x16f;" 
d="M252 -20q-85 0 -140 59.5t-55 151.5v322h159v-284q0 -48 26 -78.5t68 -30.5q41 0 68 30t27 76v287h159v-513h-154v70q-61 -90 -158 -90zM166 692q0 59 40 96t105 37t105 -37t40 -96t-40 -95.5t-105 -36.5t-105 36.5t-40 95.5zM254 692q0 -26 16 -41.5t41 -15.5t41 16
t16 41t-16 41t-41 16q-26 0 -42 -16t-15 -41z" />
    <glyph glyph-name="Uhungarumlaut" unicode="&#x170;" horiz-adv-x="780" 
d="M535 713h178v-417q0 -142 -90 -231.5t-233 -89.5t-233 89.5t-90 231.5v417h179v-411q0 -70 39 -121.5t105 -52.5q65 0 105 49t40 125v411zM235 770v39l80 127h105v-46l-99 -120h-86zM420 770v39l93 127h105v-46l-112 -120h-86z" />
    <glyph glyph-name="uhungarumlaut" unicode="&#x171;" 
d="M252 -20q-85 0 -140 59.5t-55 151.5v322h159v-284q0 -48 26 -78.5t68 -30.5q41 0 68 30t27 76v287h159v-513h-154v70q-61 -90 -158 -90zM156 570v39l80 141h105v-46l-100 -134h-85zM341 570v39l93 141h105v-46l-113 -134h-85z" />
    <glyph glyph-name="Uogonek" unicode="&#x172;" horiz-adv-x="780" 
d="M535 713h178v-417q0 -118 -64 -201.5t-171 -109.5q-67 -30 -67 -79q0 -38 40 -69t105 -43v-64h-107q-57 18 -93 61t-36 94q0 53 50 91q-135 6 -219 94t-84 226v417h179v-411q0 -70 39 -121.5t105 -52.5q65 0 105 49t40 125v411z" />
    <glyph glyph-name="uogonek" unicode="&#x173;" horiz-adv-x="632" 
d="M253 -20q-85 0 -140.5 59.5t-55.5 151.5v322h159v-284q0 -48 26.5 -78.5t67.5 -30.5q42 0 68.5 29.5t26.5 76.5v287h159v-513h-19q-107 -33 -107 -94q0 -38 40 -69t105 -43v-64h-107q-57 18 -93 61t-36 94q0 78 97 115h-34v70q-59 -90 -157 -90z" />
    <glyph glyph-name="Wcircumflex" unicode="&#x174;" horiz-adv-x="1245" 
d="M1208 713v-97l-198 -616h-242l-145 473l-145 -473h-242l-199 616v97h152l177 -548l172 548h169l173 -548l177 548h151zM460 816l85 114h156l84 -114v-39h-86l-76 94l-77 -94h-86v39z" />
    <glyph glyph-name="wcircumflex" unicode="&#x175;" horiz-adv-x="915" 
d="M164 513l112 -351l113 351h136l119 -355l113 355h138v-72l-145 -441h-195l-98 327l-97 -327h-195l-145 441v72h144zM290 616l84 134h156l85 -134v-39h-86l-77 113l-77 -113h-85v39z" />
    <glyph glyph-name="Ycircumflex" unicode="&#x176;" horiz-adv-x="687" 
d="M168 713l177 -312l170 312h147v-91l-227 -375v-247h-179v247l-231 375v91h143zM183 816l84 114h156l84 -114v-39h-85l-77 94l-76 -94h-86v39z" />
    <glyph glyph-name="ycircumflex" unicode="&#x177;" horiz-adv-x="565" 
d="M64 -106q21 -7 52 -7q72 0 119 107l-220 450v69h139l144 -320l113 320h139v-69l-175 -463q-79 -213 -216 -213q-55 0 -95 16v110zM135 616l84 134h156l85 -134v-39h-86l-77 113l-77 -113h-85v39z" />
    <glyph glyph-name="Ydieresis" unicode="&#x178;" horiz-adv-x="687" 
d="M168 713l177 -312l170 312h147v-91l-227 -375v-247h-179v247l-231 375v91h143zM118 848q0 39 26 63.5t65 24.5q41 0 66.5 -24.5t25.5 -63.5t-25.5 -63.5t-66.5 -24.5q-39 0 -65 24.5t-26 63.5zM389 848q0 39 26 63.5t66 24.5t65.5 -24.5t25.5 -63.5t-25.5 -63.5
t-65.5 -24.5t-66 24.5t-26 63.5z" />
    <glyph glyph-name="Zacute" unicode="&#x179;" horiz-adv-x="670" 
d="M45 713h580v-117l-351 -456h361v-140h-600v117l360 456h-350v140zM283 770v39l97 114h104v-46l-116 -107h-85z" />
    <glyph glyph-name="zacute" unicode="&#x17a;" horiz-adv-x="529" 
d="M35 513h459v-104l-238 -279h248v-130h-479v104l253 279h-243v130zM212 570v39l97 134h104v-46l-116 -127h-85z" />
    <glyph glyph-name="Zdotaccent" unicode="&#x17b;" horiz-adv-x="670" 
d="M45 713h580v-117l-351 -456h361v-140h-600v117l360 456h-350v140zM246 842q0 37 24.5 59t65.5 22t66.5 -22t25.5 -59t-25 -59.5t-66 -22.5q-42 0 -67 22.5t-24 59.5z" />
    <glyph glyph-name="zdotaccent" unicode="&#x17c;" horiz-adv-x="529" 
d="M35 513h459v-104l-238 -279h248v-130h-479v104l253 279h-243v130zM173 648q0 39 26 63.5t65 24.5q41 0 66.5 -24.5t25.5 -63.5t-25.5 -63.5t-66.5 -24.5q-39 0 -65 24.5t-26 63.5z" />
    <glyph glyph-name="Zcaron" unicode="&#x17d;" horiz-adv-x="670" 
d="M45 713h580v-117l-351 -456h361v-140h-600v117l360 456h-350v140zM257 770l-84 114v39h85l77 -94l77 94h85v-39l-84 -114h-156z" />
    <glyph glyph-name="zcaron" unicode="&#x17e;" horiz-adv-x="529" 
d="M35 513h459v-104l-238 -279h248v-130h-479v104l253 279h-243v130zM186 570l-84 134v39h85l77 -113l77 113h86v-39l-85 -134h-156z" />
    <glyph glyph-name="Aacutering" unicode="&#x1fa;" horiz-adv-x="730" 
d="M235 713h260l205 -616v-97h-157l-37 115h-282l-37 -115h-157v97zM365 561l-106 -319h213zM226 860q0 52 41 86t105 34q67 0 110 -34t43 -86t-43 -86t-110 -34q-64 0 -105 34t-41 86zM307 860q0 -22 18.5 -36.5t46.5 -14.5q29 0 47 14.5t18 36.5t-18 36.5t-47 14.5
q-28 0 -46.5 -14.5t-18.5 -36.5zM316 990v39l110 91h92v-46l-135 -84h-67z" />
    <glyph glyph-name="aacutering" unicode="&#x1fb;" horiz-adv-x="656" 
d="M322 533q125 0 206 -78t81 -199v-256h-146v61q-65 -81 -174 -81q-112 0 -182 77t-70 199q0 121 80 199t205 78zM323 393q-56 0 -91.5 -38.5t-35.5 -98.5q0 -59 36 -97.5t91 -38.5t91 38.5t36 97.5q0 60 -35.5 98.5t-91.5 38.5zM180 670q0 52 40.5 86t102.5 34
q65 0 107 -34t42 -86t-42 -86t-107 -34q-62 0 -102.5 34t-40.5 86zM262 670q0 -23 17 -37t44 -14t44 14t17 37t-17 37t-44 14t-44 -14t-17 -37zM264 800v39l106 91h92v-46l-133 -84h-65z" />
    <glyph glyph-name="AEacute" unicode="&#x1fc;" horiz-adv-x="970" 
d="M475 115h-232l-56 -115h-157v84l315 629h575v-140h-286v-151h246v-121h-246v-161h296v-140h-455v115zM475 235v357l-176 -357h176zM492 770v39l97 114h105v-46l-116 -107h-86z" />
    <glyph glyph-name="aeacute" unicode="&#x1fd;" horiz-adv-x="1053" 
d="M450 513h94v-86q55 106 199 106q121 0 196.5 -75.5t76.5 -195.5q0 -38 -4 -57h-392q13 -48 46.5 -76.5t79.5 -28.5q37 0 68 17.5t43 46.5h123v-58q-25 -56 -93 -91t-151 -35q-138 0 -192 104v-84h-94v75q-65 -95 -180 -95q-103 0 -168 77t-65 199t65 199.5t168 77.5
q114 0 180 -96v76zM450 256q0 66 -35.5 108t-91.5 42t-91.5 -41.5t-35.5 -108.5q0 -65 35.5 -107t91.5 -42q55 0 91 41t36 108zM735 413q-50 0 -82.5 -37.5t-37.5 -98.5h241q2 56 -32.5 96t-88.5 40zM450 570v39l96 134h105v-46l-116 -127h-85z" />
    <glyph glyph-name="Oslashacute" unicode="&#x1fe;" horiz-adv-x="865" 
d="M40 356q0 170 109 276t283 106q73 0 141 -22l74 144h78v-39l-73 -141q82 -49 127.5 -133t45.5 -191q0 -169 -109 -275t-284 -106q-67 0 -132 19l-68 -134h-78v39l66 128q-85 49 -132.5 134t-47.5 195zM219 356q0 -118 76 -181l205 399q-33 11 -68 11q-94 0 -153.5 -64
t-59.5 -165zM646 356q0 110 -70 175l-203 -396q27 -7 59 -7q95 0 154.5 63.5t59.5 164.5zM370 780v39l97 113h105v-46l-116 -106h-86z" />
    <glyph glyph-name="oslashacute" unicode="&#x1ff;" horiz-adv-x="659" 
d="M137 -47l34 65q-64 36 -99 97.5t-35 140.5q0 123 81 200t211 77q53 0 100 -14l42 81h65v-33l-40 -78q59 -36 92.5 -96.5t33.5 -136.5q0 -122 -81.5 -199t-211.5 -77q-46 0 -90 11l-37 -71h-65v33zM177 256q0 -80 51 -126l146 283q-21 6 -45 6q-67 0 -109.5 -45.5
t-42.5 -117.5zM482 256q0 72 -45 119l-143 -278q16 -3 35 -3q67 0 110 45.5t43 116.5zM268 570v39l96 134h105v-46l-116 -127h-85z" />
    <glyph glyph-name="Scommaaccent" unicode="&#x218;" horiz-adv-x="688" 
d="M338 -25q-104 0 -184.5 43.5t-105.5 112.5v78h144q5 -44 48 -72.5t104 -28.5q63 -1 104 26t41 68q0 31 -25 48.5t-65 25t-88.5 13t-97 17t-88.5 31t-65 61.5t-25 103q0 105 82 171t212 66q108 0 189.5 -40t103.5 -103v-78h-143q-4 39 -45 63.5t-100 24.5t-97 -24.5
t-38 -62.5q0 -35 33.5 -53.5t84 -23t109 -15t109 -27t84 -61t33.5 -114.5q1 -110 -86.5 -179.5t-227.5 -69.5zM260 -123q0 30 19.5 49.5t50.5 19.5q36 0 59 -26t23 -67q0 -53 -25.5 -100t-64.5 -67h-53v36q23 7 38 30t15 50q-27 0 -44.5 21t-17.5 54z" />
    <glyph glyph-name="scommaaccent" unicode="&#x219;" horiz-adv-x="537" 
d="M264 -20q-79 0 -142.5 32t-83.5 82v65h130q5 -31 33.5 -50t69.5 -19q39 0 63.5 16.5t24.5 42.5q0 22 -24.5 34t-62 14t-80.5 10t-80.5 20.5t-62 46.5t-24.5 87q0 76 65.5 124t168.5 48q83 0 146 -28t80 -72v-59h-129q-2 22 -28.5 35.5t-65.5 13.5q-38 0 -61 -14t-23 -36
q0 -20 24.5 -31t62 -14t80.5 -11.5t80.5 -21t62 -45.5t24.5 -84q0 -82 -69 -134t-179 -52zM203 -123q0 30 19.5 49.5t50.5 19.5q35 0 58.5 -26.5t23.5 -66.5q0 -53 -25.5 -100t-64.5 -67h-53v36q23 7 38 30t15 50q-27 0 -44.5 21t-17.5 54z" />
    <glyph glyph-name="circumflex" unicode="&#x2c6;" horiz-adv-x="398" 
d="M37 616l84 134h156l85 -134v-39h-86l-77 113l-77 -113h-85v39z" />
    <glyph glyph-name="caron" unicode="&#x2c7;" horiz-adv-x="399" 
d="M121 570l-84 134v39h85l77 -113l77 113h86v-39l-85 -134h-156z" />
    <glyph glyph-name="breve" unicode="&#x2d8;" horiz-adv-x="379" 
d="M189 570q-56 0 -97.5 33t-54.5 88v52h94q0 -41 16 -66t42 -25t42.5 25t16.5 66h94v-52q-13 -55 -54.5 -88t-98.5 -33z" />
    <glyph glyph-name="dotaccent" unicode="&#x2d9;" horiz-adv-x="257" 
d="M37 649q0 38 25.5 63t65.5 25t66 -25t26 -63q0 -39 -26 -64t-66 -25t-65.5 25t-25.5 64z" />
    <glyph glyph-name="ring" unicode="&#x2da;" horiz-adv-x="364" 
d="M37 685q0 59 40 96t105 37t105 -37t40 -96t-40 -95.5t-105 -36.5q-64 0 -104.5 36.5t-40.5 95.5zM125 685q0 -25 16 -41t41 -16t41 16t16 41t-15.5 41t-41.5 16t-41.5 -16t-15.5 -41z" />
    <glyph glyph-name="ogonek" unicode="&#x2db;" horiz-adv-x="310" 
d="M234 12v-12q-107 -33 -107 -94q0 -38 40.5 -69t105.5 -43v-64h-108q-56 18 -92 61t-36 94q0 46 38 80t103 47h56z" />
    <glyph glyph-name="tilde" unicode="&#x2dc;" horiz-adv-x="490" 
d="M162 685q41 0 91.5 -32t73.5 -32q19 0 33.5 10t18.5 27h74v-41q-14 -43 -49.5 -66.5t-79.5 -23.5q-45 0 -95 32t-73 32q-17 0 -29.5 -10t-15.5 -27h-74v40q14 44 47.5 67.5t77.5 23.5z" />
    <glyph glyph-name="hungarumlaut" unicode="&#x2dd;" horiz-adv-x="457" 
d="M37 570v39l80 141h105v-46l-100 -134h-85zM222 570v39l94 141h104v-46l-112 -134h-86z" />
    <glyph glyph-name="Wgrave" unicode="&#x1e80;" horiz-adv-x="1245" 
d="M1208 713v-97l-198 -616h-242l-145 473l-145 -473h-242l-199 616v97h152l177 -548l172 548h169l173 -548l177 548h151zM675 809v-39h-86l-116 107v46h105z" />
    <glyph glyph-name="wgrave" unicode="&#x1e81;" horiz-adv-x="915" 
d="M164 513l112 -351l113 351h136l119 -355l113 355h138v-72l-145 -441h-195l-98 327l-97 -327h-195l-145 441v72h144zM504 609v-39h-85l-117 127v46h105z" />
    <glyph glyph-name="Wacute" unicode="&#x1e82;" horiz-adv-x="1245" 
d="M1208 713v-97l-198 -616h-242l-145 473l-145 -473h-242l-199 616v97h152l177 -548l172 548h169l173 -548l177 548h151zM570 770v39l98 114h104v-46l-116 -107h-86z" />
    <glyph glyph-name="wacute" unicode="&#x1e83;" horiz-adv-x="915" 
d="M164 513l112 -351l113 351h136l119 -355l113 355h138v-72l-145 -441h-195l-98 327l-97 -327h-195l-145 441v72h144zM400 570v39l96 134h105v-46l-116 -127h-85z" />
    <glyph glyph-name="Wdieresis" unicode="&#x1e84;" horiz-adv-x="1245" 
d="M1208 713v-97l-198 -616h-242l-145 473l-145 -473h-242l-199 616v97h152l177 -548l172 548h169l173 -548l177 548h151zM396 848q0 39 25.5 63.5t65.5 24.5t65.5 -24.5t25.5 -63.5t-25.5 -63.5t-65.5 -24.5t-65.5 24.5t-25.5 63.5zM667 848q0 39 25.5 63.5t65.5 24.5
q41 0 66.5 -24.5t25.5 -63.5t-25.5 -63.5t-66.5 -24.5q-40 0 -65.5 24.5t-25.5 63.5z" />
    <glyph glyph-name="wdieresis" unicode="&#x1e85;" horiz-adv-x="915" 
d="M164 513l112 -351l113 351h136l119 -355l113 355h138v-72l-145 -441h-195l-98 327l-97 -327h-195l-145 441v72h144zM225 666q0 38 26 63t66 25t65.5 -25t25.5 -63t-25.5 -63t-65.5 -25t-66 25t-26 63zM497 666q0 38 25.5 63t65.5 25t66 -25t26 -63t-26 -63t-66 -25
t-65.5 25t-25.5 63z" />
    <glyph glyph-name="uni1E9E" unicode="&#x1e9e;" horiz-adv-x="784" 
d="M241 0h-179v490q0 108 89 176t232 68q131 0 212 -58t83 -151q1 -57 -42.5 -98t-113.5 -49q95 -9 155 -63.5t61 -131.5q1 -92 -63.5 -150t-167.5 -58q-57 0 -113.5 17.5t-88.5 44.5v119h69q5 -25 29 -41t56 -15q44 0 72.5 28.5t27.5 74.5q0 53 -47.5 86.5t-121.5 33.5h-42
l1 104h45q53 0 86.5 24t33.5 61q0 43 -37.5 69.5t-96.5 26.5q-62 0 -100.5 -31t-38.5 -80v-497z" />
    <glyph glyph-name="Ygrave" unicode="&#x1ef2;" horiz-adv-x="687" 
d="M168 713l177 -312l170 312h147v-91l-227 -375v-247h-179v247l-231 375v91h143zM383 809v-39h-86l-116 107v46h105z" />
    <glyph glyph-name="ygrave" unicode="&#x1ef3;" horiz-adv-x="565" 
d="M64 -106q21 -7 52 -7q72 0 119 107l-220 450v69h139l144 -320l113 320h139v-69l-175 -463q-79 -213 -216 -213q-55 0 -95 16v110zM324 609v-39h-86l-116 127v46h105z" />
    <glyph glyph-name="endash" unicode="&#x2013;" horiz-adv-x="704" 
d="M67 375h570v-129h-570v129z" />
    <glyph glyph-name="emdash" unicode="&#x2014;" horiz-adv-x="904" 
d="M67 246v129h770v-129h-770z" />
    <glyph glyph-name="quoteleft" unicode="&#x2018;" horiz-adv-x="259" 
d="M222 473q0 -39 -25 -63.5t-64 -24.5q-43 0 -69.5 34t-26.5 90q0 66 29 124t74 80h72v-36q-32 -12 -52 -44.5t-20 -71.5q36 0 59 -24.5t23 -63.5z" />
    <glyph glyph-name="quoteright" unicode="&#x2019;" horiz-adv-x="259" 
d="M38 654q0 39 25 63.5t63 24.5q44 0 70 -33.5t26 -89.5q0 -65 -29.5 -124t-73.5 -81h-72v36q32 12 52 44.5t20 71.5q-36 0 -58.5 25t-22.5 63z" />
    <glyph glyph-name="quotesinglbase" unicode="&#x201a;" horiz-adv-x="259" 
d="M38 72q0 38 25 63t63 25q44 0 70 -34t26 -90q0 -65 -29.5 -123.5t-73.5 -80.5h-72v36q32 12 52 44.5t20 71.5q-36 0 -58.5 24.5t-22.5 63.5z" />
    <glyph glyph-name="quotedblleft" unicode="&#x201c;" horiz-adv-x="497" 
d="M222 473q0 -39 -25 -63.5t-64 -24.5q-43 0 -69.5 34t-26.5 90q0 65 29.5 123.5t73.5 80.5h72v-36q-32 -12 -52 -44.5t-20 -71.5q36 0 59 -24.5t23 -63.5zM460 473q0 -39 -25 -63.5t-63 -24.5q-44 0 -70.5 34t-26.5 90q0 66 29.5 124t74.5 80h71v-36q-31 -12 -51.5 -44.5
t-20.5 -71.5q36 0 59 -24.5t23 -63.5z" />
    <glyph glyph-name="quotedblright" unicode="&#x201d;" horiz-adv-x="497" 
d="M38 654q0 39 25 63.5t63 24.5q44 0 70 -33.5t26 -89.5q0 -65 -29.5 -124t-73.5 -81h-72v36q32 12 52 44.5t20 71.5q-36 0 -58.5 25t-22.5 63zM276 655q0 38 25 62.5t63 24.5q44 0 70 -33.5t26 -89.5q0 -66 -29 -124t-74 -80h-72v35q31 12 51.5 45t20.5 71q-35 0 -58 25
t-23 64z" />
    <glyph glyph-name="quotedblbase" unicode="&#x201e;" horiz-adv-x="498" 
d="M38 72q0 38 25 63t63 25q44 0 70 -34t26 -90q0 -65 -29.5 -123.5t-73.5 -80.5h-72v36q32 12 52 44.5t20 71.5q-36 0 -58.5 24.5t-22.5 63.5zM276 72q0 38 25 63t63 25q44 0 70.5 -34t26.5 -90q0 -66 -29.5 -124t-74.5 -80h-72v36q32 12 52.5 44.5t20.5 71.5
q-36 0 -59 24.5t-23 63.5z" />
    <glyph glyph-name="bullet" unicode="&#x2022;" horiz-adv-x="309" 
d="M37 310q0 50 33 82t84 32q52 0 85 -32t33 -82t-33 -82t-85 -32q-51 0 -84 32t-33 82z" />
    <glyph glyph-name="ellipsis" unicode="&#x2026;" horiz-adv-x="735" 
d="M37 72q0 39 25.5 64t65.5 25t66 -25t26 -64t-25.5 -63.5t-66.5 -24.5q-40 0 -65.5 24.5t-25.5 63.5zM276 72q0 39 25.5 64t65.5 25t66 -25t26 -64t-25.5 -63.5t-66.5 -24.5q-40 0 -65.5 24.5t-25.5 63.5zM515 72q0 39 26 64t65 25q40 0 66 -25t26 -64t-25.5 -63.5
t-66.5 -24.5q-39 0 -65 24.5t-26 63.5z" />
    <glyph glyph-name="perthousand" unicode="&#x2030;" horiz-adv-x="1557" 
d="M803 233q95 0 155.5 -60.5t60.5 -155.5t-60.5 -155.5t-155.5 -60.5q-94 0 -154.5 60.5t-60.5 155.5t60 155.5t155 60.5zM803 113q-42 0 -68.5 -26.5t-26.5 -69.5t26.5 -69t68.5 -26q43 0 69.5 26t26.5 69t-26.5 69.5t-69.5 26.5zM1309 233q95 0 155.5 -60.5t60.5 -155.5
t-60.5 -155.5t-155.5 -60.5t-155.5 60.5t-60.5 155.5t60.5 155.5t155.5 60.5zM1309 113q-43 0 -69.5 -26.5t-26.5 -69.5t26.5 -69t69.5 -26q42 0 68.5 26t26.5 69t-26.5 69.5t-68.5 26.5zM242 -135l463 878h99v-65l-463 -878h-99v65zM243 742q95 0 155.5 -61t60.5 -155
q0 -95 -60.5 -155.5t-155.5 -60.5t-155.5 60.5t-60.5 155.5t60.5 155.5t155.5 60.5zM243 621q-43 0 -69.5 -26t-26.5 -69t26.5 -69.5t69.5 -26.5t69 26.5t26 69.5t-26 69t-69 26z" />
    <glyph glyph-name="guilsinglleft" unicode="&#x2039;" horiz-adv-x="357" 
d="M210 0l-185 256l185 257h117v-73l-146 -184l146 -183v-73h-117z" />
    <glyph glyph-name="guilsinglright" unicode="&#x203a;" horiz-adv-x="356" 
d="M331 256l-184 -256h-117v73l145 183l-145 184v73h117z" />
    <glyph glyph-name="lira" unicode="&#x20a4;" horiz-adv-x="693" 
d="M404 737q89 0 156 -46t80 -118v-65h-139q0 42 -23.5 69.5t-59.5 27.5q-35 0 -57 -28.5t-22 -72.5v-76h218v-75h-218q0 -16 -2 -44h220v-75h-251q-29 -90 -96 -120h430v-114h-576v147q58 13 80 93h-77v69h106q1 13 1 44h-107v75h107v86q0 99 63.5 161t166.5 62z" />
    <glyph glyph-name="Euro" unicode="&#x20ac;" horiz-adv-x="874" 
d="M495 738q104 0 196 -51.5t129 -138.5v-62h-158q-14 52 -61 85t-108 33q-65 0 -114 -35.5t-70 -96.5h225v-81h-246q-2 -11 -2 -35q0 -23 2 -34h246v-81h-225q21 -61 70 -97t114 -36q60 0 107.5 32t62.5 83h157v-63q-38 -82 -127.5 -133.5t-196.5 -51.5q-137 0 -239 72.5
t-134 193.5h-86v81h72q-2 22 -2 34q0 11 2 35h-72v81h86q33 123 134.5 194.5t237.5 71.5z" />
    <glyph glyph-name="trademark" unicode="&#x2122;" horiz-adv-x="1150" 
d="M7 713h402v-114h-135v-449h-133v449h-134v114zM593 503v-353h-127v563h158l155 -392l152 392h162v-563h-127v353l-139 -353h-95z" />
    <glyph glyph-name="minus" unicode="&#x2212;" horiz-adv-x="504" 
d="M47 246v129h410v-129h-410z" />
    <glyph glyph-name="approxequal" unicode="&#x2248;" horiz-adv-x="474" 
 />
    <glyph glyph-name="notequal" unicode="&#x2260;" horiz-adv-x="604" 
d="M67 374v125h257l49 144h79v-39l-35 -105h120v-125h-162l-44 -131h206v-124h-248l-53 -159h-79v46l38 113h-128v124h170l45 131h-215z" />
    <glyph glyph-name="lessequal" unicode="&#x2264;" horiz-adv-x="427" 
d="M25 101h372v-101h-372v101zM126 336l271 -85v-92h-58l-314 105v143l314 106h58v-92z" />
    <glyph glyph-name="greaterequal" unicode="&#x2265;" horiz-adv-x="427" 
d="M30 101h372v-101h-372v101zM30 251l271 85l-271 85v92h59l313 -106v-143l-313 -105h-59v92z" />
    <glyph glyph-name="commaaccent" unicode="&#xf6c3;" horiz-adv-x="227" 
d="M38 65q0 30 19.5 49.5t50.5 19.5q35 0 58.5 -26.5t23.5 -66.5q0 -53 -25.5 -100t-65.5 -67h-52v36q23 7 38 30t15 50q-27 0 -44.5 21t-17.5 54z" />
    <glyph glyph-name="IJ.alt1" horiz-adv-x="808" 
d="M77 0v713h179v-713h-179zM380 713h361v-487q0 -110 -67.5 -178t-176.5 -68q-79 0 -144 20v133q47 -13 94 -13q51 -1 83 36t32 96v321h-182v140z" />
    <glyph glyph-name="IJacute" horiz-adv-x="806" 
d="M77 0v713h179v-713h-179zM562 713h179v-487q0 -109 -69 -177.5t-175 -68.5q-79 0 -144 20v133q47 -13 94 -13q51 -1 83 36t32 96v461zM111 770v39l97 114h105v-46l-116 -107h-86zM587 770v39l97 114h105v-46l-116 -107h-86z" />
    <glyph glyph-name="IJacute.alt1" horiz-adv-x="820" 
d="M77 0v713h179v-713h-179zM380 713h361v-487q0 -110 -67.5 -178t-176.5 -68q-79 0 -144 20v133q47 -13 94 -13q51 -1 83 36t32 96v321h-182v140zM105 770v39l97 114h104v-46l-115 -107h-86zM572 770v39l97 114h105v-46l-116 -107h-86z" />
    <glyph glyph-name="J.alt1" horiz-adv-x="469" 
d="M46 713h361v-487q0 -109 -67.5 -177.5t-175.5 -68.5q-79 0 -144 20v133q47 -13 94 -13q51 -1 83 36t32 96v321h-183v140z" />
    <glyph glyph-name="a.alt1" horiz-adv-x="676" 
d="M451 513h159v-513h-159v71q-67 -91 -179 -91q-102 0 -168.5 78t-66.5 198t66.5 198.5t168.5 78.5q111 0 179 -92v72zM450 256q0 60 -35.5 98.5t-91.5 38.5t-91.5 -38.5t-35.5 -98.5q0 -59 36 -97.5t91 -38.5t91 38.5t36 97.5z" />
    <glyph glyph-name="aacute.alt1" horiz-adv-x="676" 
d="M451 513h159v-513h-159v71q-67 -91 -179 -91q-102 0 -168.5 78t-66.5 198t66.5 198.5t168.5 78.5q111 0 179 -92v72zM450 256q0 60 -35.5 98.5t-91.5 38.5t-91.5 -38.5t-35.5 -98.5q0 -59 36 -97.5t91 -38.5t91 38.5t36 97.5zM290 570v39l96 134h105v-46l-116 -127h-85z
" />
    <glyph glyph-name="aacutering.alt1" horiz-adv-x="676" 
d="M451 513h159v-513h-159v71q-67 -91 -179 -91q-102 0 -168.5 78t-66.5 198t66.5 198.5t168.5 78.5q111 0 179 -92v72zM450 256q0 60 -35.5 98.5t-91.5 38.5t-91.5 -38.5t-35.5 -98.5q0 -59 36 -97.5t91 -38.5t91 38.5t36 97.5zM196 670q0 52 40.5 86t102.5 34
q65 0 107 -33.5t42 -86.5t-42 -86.5t-107 -33.5q-62 0 -102.5 34t-40.5 86zM277 670q0 -22 17.5 -36.5t44.5 -14.5q26 0 43.5 14.5t17.5 36.5t-17.5 36.5t-43.5 14.5q-27 0 -44.5 -14.5t-17.5 -36.5zM280 800v39l106 91h91v-46l-132 -84h-65z" />
    <glyph glyph-name="abreve.alt1" horiz-adv-x="676" 
d="M451 513h159v-513h-159v71q-67 -91 -179 -91q-102 0 -168.5 78t-66.5 198t66.5 198.5t168.5 78.5q111 0 179 -92v72zM450 256q0 60 -35.5 98.5t-91.5 38.5t-91.5 -38.5t-35.5 -98.5q0 -59 36 -97.5t91 -38.5t91 38.5t36 97.5zM333 560q-56 0 -98 33t-54 88v52h94
q0 -41 16 -66t42 -25t42 25t16 66h94v-52q-12 -55 -54 -88t-98 -33z" />
    <glyph glyph-name="acircumflex.alt1" horiz-adv-x="676" 
d="M451 513h159v-513h-159v71q-67 -91 -179 -91q-102 0 -168.5 78t-66.5 198t66.5 198.5t168.5 78.5q111 0 179 -92v72zM450 256q0 60 -35.5 98.5t-91.5 38.5t-91.5 -38.5t-35.5 -98.5q0 -59 36 -97.5t91 -38.5t91 38.5t36 97.5zM175 616l84 134h156l84 -134v-39h-85
l-77 113l-77 -113h-85v39z" />
    <glyph glyph-name="acute.case" horiz-adv-x="276" 
d="M37 590v39l97 114h105v-46l-116 -107h-86z" />
    <glyph glyph-name="adieresis.alt1" horiz-adv-x="676" 
d="M451 513h159v-513h-159v71q-67 -91 -179 -91q-102 0 -168.5 78t-66.5 198t66.5 198.5t168.5 78.5q111 0 179 -92v72zM450 256q0 60 -35.5 98.5t-91.5 38.5t-91.5 -38.5t-35.5 -98.5q0 -59 36 -97.5t91 -38.5t91 38.5t36 97.5zM111 666q0 38 25.5 63t65.5 25t65.5 -25
t25.5 -63t-25.5 -63t-65.5 -25t-65.5 25t-25.5 63zM383 666q0 38 25.5 63t65.5 25t65.5 -25t25.5 -63t-25.5 -63t-65.5 -25t-65.5 25t-25.5 63z" />
    <glyph glyph-name="agrave.alt1" horiz-adv-x="675" 
d="M451 513h159v-513h-159v71q-67 -91 -179 -91q-102 0 -168.5 78t-66.5 198t66.5 198.5t168.5 78.5q111 0 179 -92v72zM450 256q0 60 -35.5 98.5t-91.5 38.5t-91.5 -38.5t-35.5 -98.5q0 -59 36 -97.5t91 -38.5t91 38.5t36 97.5zM394 609v-39h-85l-116 127v46h105z" />
    <glyph glyph-name="amacron.alt1" horiz-adv-x="675" 
d="M451 513h159v-513h-159v71q-67 -91 -179 -91q-102 0 -168.5 78t-66.5 198t66.5 198.5t168.5 78.5q111 0 179 -92v72zM450 256q0 60 -35.5 98.5t-91.5 38.5t-91.5 -38.5t-35.5 -98.5q0 -59 36 -97.5t91 -38.5t91 38.5t36 97.5zM160 675h342v-94h-342v94z" />
    <glyph glyph-name="aogonek.alt1" horiz-adv-x="676" 
d="M451 513h159v-513h-40q-107 -33 -107 -94q0 -38 40.5 -69t105.5 -43v-64h-108q-56 18 -92 61t-36 94q0 78 97 115h-19v71q-67 -91 -179 -91q-102 0 -168.5 78t-66.5 198t66.5 198.5t168.5 78.5q111 0 179 -92v72zM450 256q0 60 -35.5 98.5t-91.5 38.5t-91.5 -38.5
t-35.5 -98.5q0 -59 36 -97.5t91 -38.5t91 38.5t36 97.5z" />
    <glyph glyph-name="aring.alt1" horiz-adv-x="676" 
d="M451 513h159v-513h-159v71q-67 -91 -179 -91q-102 0 -168.5 78t-66.5 198t66.5 198.5t168.5 78.5q111 0 179 -92v72zM450 256q0 60 -35.5 98.5t-91.5 38.5t-91.5 -38.5t-35.5 -98.5q0 -59 36 -97.5t91 -38.5t91 38.5t36 97.5zM207 692q0 59 40 96t105 37t105 -37t40 -96
t-40 -95.5t-105 -36.5t-105 36.5t-40 95.5zM295 692q0 -25 16 -41t41 -16q26 0 41.5 15.5t15.5 41.5t-15.5 41.5t-41.5 15.5q-25 0 -41 -16t-16 -41z" />
    <glyph glyph-name="atilde.alt1" horiz-adv-x="676" 
d="M451 513h159v-513h-159v71q-67 -91 -179 -91q-102 0 -168.5 78t-66.5 198t66.5 198.5t168.5 78.5q111 0 179 -92v72zM450 256q0 60 -35.5 98.5t-91.5 38.5t-91.5 -38.5t-35.5 -98.5q0 -59 36 -97.5t91 -38.5t91 38.5t36 97.5zM259 735q41 0 91.5 -32t73.5 -32
q19 0 33.5 10t18.5 27h74v-41q-14 -43 -49.5 -66.5t-79.5 -23.5q-45 0 -95 32t-73 32q-17 0 -29.5 -10t-15.5 -27h-74v40q14 44 47.5 67.5t77.5 23.5z" />
    <glyph glyph-name="b.alt1" horiz-adv-x="669" 
d="M397 533q102 0 168.5 -78.5t66.5 -198.5t-66.5 -198t-168.5 -78q-107 0 -172 83v-63h-158v743h159v-291q67 81 171 81zM346 390q-55 0 -90.5 -38t-35.5 -96t35.5 -95.5t90.5 -37.5q56 0 91.5 37.5t35.5 95.5q0 59 -36 96.5t-91 37.5z" />
    <glyph glyph-name="breve.case" horiz-adv-x="379" 
d="M189 590q-57 0 -99 28t-53 73v52h94q0 -32 16 -51.5t42 -20.5q26 0 42.5 20t16.5 52h93l1 -52q-10 -46 -52 -73.5t-101 -27.5z" />
    <glyph glyph-name="caron.case" horiz-adv-x="399" 
d="M121 590l-84 114v39h86l76 -94l78 94h85v-39l-84 -114h-157z" />
    <glyph glyph-name="circumflex.case" horiz-adv-x="399" 
d="M37 636l84 114h157l84 -114v-39h-85l-78 94l-76 -94h-86v39z" />
    <glyph glyph-name="d.alt1" horiz-adv-x="664" 
d="M267 533q104 0 171 -81v291h159v-743h-158v63q-65 -83 -172 -83q-102 0 -168.5 78t-66.5 198t66.5 198.5t168.5 78.5zM318 390q-55 0 -91 -37.5t-36 -96.5q0 -58 35.5 -95.5t91.5 -37.5q55 0 90.5 37.5t35.5 95.5t-35.5 96t-90.5 38z" />
    <glyph glyph-name="dcaron.alt1" horiz-adv-x="742" 
d="M318 390q-55 0 -91 -37.5t-36 -96.5q0 -58 35.5 -95.5t91.5 -37.5q55 0 90.5 37.5t35.5 95.5t-35.5 96t-90.5 38zM267 533q104 0 171 -81v291h159v-743h-158v63q-65 -83 -172 -83q-102 0 -168.5 78t-66.5 198t66.5 198.5t168.5 78.5zM639 684q0 30 20 49.5t50 19.5
q36 0 59.5 -26t23.5 -67q0 -53 -25.5 -100.5t-65.5 -66.5h-52v36q23 8 38 30.5t15 49.5q-28 0 -45.5 21.5t-17.5 53.5z" />
    <glyph glyph-name="dcroat.alt1" horiz-adv-x="688" 
d="M268 533q105 0 170 -81v127h-161v92h161v72h159v-72h76v-92h-76v-579h-157v63q-67 -83 -172 -83q-102 0 -169 78t-67 198t66.5 198.5t169.5 78.5zM318 390q-55 0 -91 -37.5t-36 -96.5q0 -58 36 -95.5t91 -37.5t91 37.5t36 95.5q0 59 -36 96.5t-91 37.5z" />
    <glyph glyph-name="dieresis.case" horiz-adv-x="529" 
d="M37 648q0 39 25.5 63.5t65.5 24.5q41 0 66.5 -24.5t25.5 -63.5t-25.5 -63.5t-66.5 -24.5q-40 0 -65.5 24.5t-25.5 63.5zM309 648q0 39 25.5 63.5t65.5 24.5q41 0 66.5 -24.5t25.5 -63.5t-25.5 -63.5t-66.5 -24.5q-40 0 -65.5 24.5t-25.5 63.5z" />
    <glyph glyph-name="dotaccent.case" horiz-adv-x="257" 
d="M37 642q1 37 25.5 59t65.5 22t66.5 -22t25.5 -59t-25.5 -59.5t-66.5 -22.5t-66 22.5t-25 59.5z" />
    <glyph glyph-name="g.alt1" horiz-adv-x="669" 
d="M37 256q0 119 68 197t173 79q112 0 178 -96v77h146v-519q0 -106 -78 -175t-198 -69q-101 0 -178 45t-94 114v61h142q8 -43 43 -70t81 -27q54 0 88.5 34t34.5 87v75q-62 -75 -165 -75q-105 0 -173 74t-68 188zM323 393q-56 0 -91.5 -38.5t-35.5 -98.5q0 -58 36 -95.5
t91 -37.5t91 37.5t36 95.5q-1 60 -36.5 98.5t-90.5 38.5z" />
    <glyph glyph-name="gbreve.alt1" horiz-adv-x="669" 
d="M37 256q0 119 68 197t173 79q112 0 178 -96v77h146v-519q0 -106 -78 -175t-198 -69q-101 0 -178 45t-94 114v61h142q8 -43 43 -70t81 -27q54 0 88.5 34t34.5 87v75q-62 -75 -165 -75q-105 0 -173 74t-68 188zM323 393q-56 0 -91.5 -38.5t-35.5 -98.5q0 -58 36 -95.5
t91 -37.5t91 37.5t36 95.5q-1 60 -36.5 98.5t-90.5 38.5zM349 560q-56 0 -98 33t-55 88v52h94q0 -41 16.5 -66t42.5 -25t42 25t16 66h94v-52q-12 -55 -54 -88t-98 -33z" />
    <glyph glyph-name="gcommaaccent.alt1" horiz-adv-x="669" 
d="M37 256q0 119 68 197t173 79q112 0 178 -96v77h146v-519q0 -106 -78 -175t-198 -69q-101 0 -178 45t-94 114v61h142q8 -43 43 -70t81 -27q54 0 88.5 34t34.5 87v75q-62 -75 -165 -75q-105 0 -173 74t-68 188zM323 393q-56 0 -91.5 -38.5t-35.5 -98.5q0 -58 36 -95.5
t91 -37.5t91 37.5t36 95.5q-1 60 -36.5 98.5t-90.5 38.5zM402 629q0 -30 -19.5 -49t-50.5 -19q-36 0 -59 26t-23 67q0 53 25.5 100t65.5 67h52v-36q-23 -7 -38 -30t-15 -50q27 0 44.5 -21.5t17.5 -54.5z" />
    <glyph glyph-name="gdotaccent.alt1" horiz-adv-x="669" 
d="M37 256q0 119 68 197t173 79q112 0 178 -96v77h146v-519q0 -106 -78 -175t-198 -69q-101 0 -178 45t-94 114v61h142q8 -43 43 -70t81 -27q54 0 88.5 34t34.5 87v75q-62 -75 -165 -75q-105 0 -173 74t-68 188zM323 393q-56 0 -91.5 -38.5t-35.5 -98.5q0 -58 36 -95.5
t91 -37.5t91 37.5t36 95.5q-1 60 -36.5 98.5t-90.5 38.5zM237 648q0 39 26 63.5t66 24.5t65.5 -24.5t25.5 -63.5t-25.5 -63.5t-65.5 -24.5t-66 24.5t-26 63.5z" />
    <glyph glyph-name="grave.case" horiz-adv-x="276" 
d="M239 629v-39h-86l-116 107v46h105z" />
    <glyph glyph-name="hungarumlaut.case" horiz-adv-x="457" 
d="M37 590v39l80 114h105v-46l-99 -107h-86zM222 590v39l93 114h105v-46l-112 -107h-86z" />
    <glyph glyph-name="ijacute" horiz-adv-x="594" 
d="M62 0v513h159v-513h-159zM363 513h160v-549q0 -82 -48.5 -133t-127.5 -51q-66 0 -114 16v111q30 -7 60 -6q31 0 50.5 19.5t19.5 50.5v542zM90 560v39l97 134h105v-46l-116 -127h-86zM392 560v39l97 134h105v-46l-116 -127h-86z" />
    <glyph glyph-name="p.alt1" horiz-adv-x="664" 
d="M397 -20q-104 0 -171 81v-291h-159v743h158v-63q65 83 172 83q102 0 168.5 -78t66.5 -198t-66.5 -198.5t-168.5 -78.5zM346 123q55 0 91 37.5t36 96.5q0 58 -35.5 95.5t-91.5 37.5q-55 0 -90.5 -37.5t-35.5 -95.5t35.5 -96t90.5 -38z" />
    <glyph glyph-name="q.alt1" horiz-adv-x="664" 
d="M267 -20q-102 0 -168.5 78.5t-66.5 198.5t66.5 198t168.5 78q107 0 172 -83v63h158v-743h-159v291q-67 -81 -171 -81zM318 123q55 0 90.5 38t35.5 96t-35.5 95.5t-90.5 37.5q-56 0 -91.5 -37.5t-35.5 -95.5q0 -59 36 -96.5t91 -37.5z" />
    <glyph glyph-name="ring.case" horiz-adv-x="364" 
d="M37 675q0 55 40 89t105 34t105 -34t40 -89q0 -54 -40 -88t-105 -34q-64 0 -104.5 34t-40.5 88zM125 675q0 -20 16 -33.5t41 -13.5t41 13.5t16 33.5q0 21 -16 34t-41 13t-41 -13t-16 -34z" />
    <glyph glyph-name="t.alt1" horiz-adv-x="393" 
d="M20 393v120h71v89l159 41v-130h114v-120h-114v-203q0 -32 17.5 -51t46.5 -19q30 0 54 7v-131q-50 -16 -108 -16q-75 0 -122 53.5t-47 137.5v222h-71z" />
    <glyph glyph-name="tcaron.alt1" horiz-adv-x="403" 
d="M20 393v120h71v89l159 41v-130h114v-120h-114v-203q0 -32 17.5 -51t46.5 -19q30 0 54 7v-131q-50 -16 -108 -16q-75 0 -122 53.5t-47 137.5v222h-71zM281 734q0 30 19.5 49.5t50.5 19.5q36 0 59 -26t23 -67q0 -53 -25.5 -100t-64.5 -67h-53v35q23 8 38 30.5t15 50.5
q-27 0 -44.5 21t-17.5 54z" />
    <glyph glyph-name="tcommaaccent.alt1" horiz-adv-x="393" 
d="M20 393v120h71v89l159 41v-130h114v-120h-114v-203q0 -32 17.5 -51t46.5 -19q30 0 54 7v-131q-50 -16 -108 -16q-75 0 -122 53.5t-47 137.5v222h-71zM147 -123q0 30 19.5 49.5t50.5 19.5q35 0 58.5 -26.5t23.5 -66.5q0 -53 -25.5 -100.5t-65.5 -66.5h-52v36q23 7 38 30
t15 50q-27 0 -44.5 21t-17.5 54z" />
    <glyph glyph-name="tilde.case" horiz-adv-x="490" 
d="M162 685q41 0 91.5 -32t73.5 -32q19 0 33.5 10t18.5 27h74v-41q-14 -43 -49.5 -66.5t-79.5 -23.5q-45 0 -95 32t-73 32q-17 0 -29.5 -10t-15.5 -27h-74v40q14 44 47.5 67.5t77.5 23.5z" />
    </font>
</defs>
</svg>
